<svg version="1.1" id="Layer_1" xmlns="http://www.w3.org/2000/svg" xmlns:xlink="http://www.w3.org/1999/xlink" x="0px" y="0px"
	 width="100%" viewBox="0 0 500 500" enable-background="new 0 0 500 500" xml:space="preserve">
<path fill="#000000" opacity="1.000000" stroke="none" 
	d="
M343.000000,501.000000 
	C230.000031,501.000000 117.500031,500.980011 5.000178,501.095306 
	C1.576391,501.098816 0.903033,500.423889 0.905298,497.000031 
	C1.013776,333.000122 1.013758,169.000153 0.905339,5.000262 
	C0.903076,1.576996 1.575746,0.903019 4.999861,0.905284 
	C168.999756,1.013775 332.999725,1.013760 496.999634,0.905354 
	C500.422638,0.903092 501.097015,1.575402 501.094757,4.999742 
	C500.986237,168.999634 500.986237,332.999603 501.094604,496.999512 
	C501.096893,500.422272 500.426300,501.106934 497.000153,501.097504 
	C445.833740,500.956451 394.666809,501.000000 343.000000,501.000000 
z"/>
<path fill="#BEC5C9" opacity="1.000000" stroke="none" 
	d="
M236.367996,124.314484 
	C236.308136,124.882629 236.369736,125.108627 236.725983,125.526047 
	C237.081680,125.202026 237.518341,124.495384 237.787308,124.656113 
	C247.836609,130.661194 258.532532,135.676361 267.219604,143.782257 
	C268.691895,145.156052 269.478638,147.066650 271.267517,148.619919 
	C272.618835,149.756256 273.217224,151.106079 274.635681,152.164459 
	C276.014618,154.950638 278.356415,156.558807 280.045258,159.103104 
	C282.034790,161.525055 282.325806,164.483139 284.424500,166.809418 
	C284.897522,167.139923 285.087585,167.271240 285.502930,167.666351 
	C286.016235,168.561707 286.282593,169.204865 286.878784,170.066727 
	C287.466309,171.234528 287.454926,172.176865 287.599884,173.446350 
	C288.485077,177.234955 290.966309,180.062271 291.420685,184.039001 
	C291.552490,184.649475 291.604065,184.897278 291.805054,185.501862 
	C292.232239,186.324234 292.396301,186.827591 292.475220,187.785583 
	C295.331421,200.721359 295.054382,213.343857 293.627563,225.976654 
	C293.187286,229.874908 292.231537,233.707047 289.559540,237.238464 
	C285.451660,238.334915 284.676392,234.260498 281.814209,232.939743 
	C278.863678,228.973679 281.661530,225.281342 281.682434,221.589096 
	C281.726868,213.731888 282.181976,205.902863 281.409027,198.032227 
	C279.948944,183.164352 273.897247,170.240646 264.245422,159.226349 
	C255.928833,149.735733 246.196808,141.714569 233.551849,137.395599 
	C226.431534,135.024078 219.844116,132.064758 212.066864,132.469940 
	C206.158173,131.173767 200.699341,131.078049 195.123459,132.331024 
	C189.400269,133.617111 183.401733,133.591812 177.519516,136.062103 
	C174.578308,137.495163 172.051697,138.922073 168.702423,138.850250 
	C166.231079,137.382431 166.509186,135.458969 167.274551,133.552017 
	C167.845749,132.128815 168.233322,130.784454 167.385529,128.974258 
	C168.016357,125.028511 171.358170,124.926659 174.214005,123.590820 
	C177.555847,122.187347 180.791245,121.808716 184.231659,120.667023 
	C194.558426,119.240967 204.457626,117.432816 214.910507,119.511032 
	C221.276917,120.335388 227.031097,122.032768 233.214066,123.537094 
	C234.067505,123.710052 234.550766,123.817413 235.402496,123.906631 
	C236.007034,123.931908 236.248230,123.952126 236.367996,124.314484 
z"/>
<path fill="#3F4144" opacity="1.000000" stroke="none" 
	d="
M287.782776,237.251007 
	C292.309082,231.818466 291.991180,225.292160 292.934479,219.213577 
	C294.558228,208.750137 292.917480,198.394653 290.927612,187.707504 
	C290.834045,186.978455 290.679626,186.686493 290.305054,186.232590 
	C290.116150,185.861115 290.078430,185.688019 290.080261,185.252167 
	C290.776825,184.355438 291.545532,184.258621 292.735138,184.738312 
	C294.585236,186.421158 293.943420,188.338760 294.073639,190.453476 
	C295.163757,192.044968 295.145050,193.688873 295.696136,195.482010 
	C295.926117,197.522491 296.005737,199.262619 296.039246,201.435272 
	C297.054688,206.295990 296.298126,210.785126 296.219055,215.671600 
	C296.593079,219.988373 295.747681,223.798584 295.256317,227.609161 
	C294.400177,234.248596 291.663788,240.376434 289.473694,246.855698 
	C288.254120,247.605789 288.598297,248.619568 288.267517,249.781723 
	C288.113190,250.088211 288.036102,249.993515 288.085266,250.029861 
	C287.821289,250.230896 287.544159,250.442688 287.141052,250.909546 
	C286.979156,251.117538 286.963287,250.945358 287.049103,250.934906 
	C286.281006,251.603912 286.589172,252.608337 286.263336,253.786972 
	C286.106232,254.094559 286.045898,254.010239 286.091248,254.035385 
	C285.822388,254.228531 285.544067,254.443069 285.143768,254.917603 
	C284.985962,255.131088 284.983337,254.972931 285.062378,254.970367 
	C284.603973,255.368973 284.511871,255.987137 284.211121,256.844971 
	C284.063995,257.114655 284.050781,257.019928 284.098389,257.015381 
	C283.591614,257.377228 283.515320,257.991760 283.153076,258.788910 
	C281.726349,260.820099 280.489960,262.619049 279.116150,264.717621 
	C278.192505,265.772675 278.731232,266.763519 278.306458,267.896423 
	C277.637543,268.306946 277.189362,268.269745 276.469849,267.878082 
	C275.372864,266.808228 275.345398,265.536011 274.511810,264.304749 
	C274.325653,262.212219 275.469757,261.127838 276.792297,259.803711 
	C277.237213,259.255432 277.453033,258.916595 277.728607,258.249390 
	C280.940918,251.066879 283.340332,243.851715 287.782776,237.251007 
z"/>
<path fill="#635C53" opacity="1.000000" stroke="none" 
	d="
M304.268921,334.747131 
	C296.738037,329.259186 290.941315,322.017151 284.053162,315.435059 
	C283.607819,314.436127 283.599304,313.720825 284.064117,312.692932 
	C291.373474,307.122681 296.351654,299.710632 302.832001,293.798553 
	C303.885284,292.837616 305.586060,291.820953 305.125092,290.222534 
	C304.615326,288.454926 302.573181,289.191864 301.207458,288.833710 
	C300.240875,288.580200 299.266785,288.393097 298.200623,287.515533 
	C297.867676,287.027466 297.779114,286.803131 297.746277,286.219940 
	C299.058105,285.124329 300.459442,284.673798 302.019165,283.724182 
	C303.328003,283.480133 304.308655,283.483673 305.610077,283.739441 
	C312.556213,287.295135 316.685699,293.445129 322.080139,298.645416 
	C322.026337,299.741058 321.528992,300.256805 320.502594,300.729828 
	C317.312622,300.915649 315.629364,298.902222 313.894562,297.177185 
	C311.704224,294.999207 310.133545,295.264679 308.203430,297.611176 
	C303.972778,302.754364 299.200409,307.421814 294.203949,311.804138 
	C291.532135,314.147522 291.342712,315.930054 294.052490,318.148407 
	C295.207245,319.093719 295.872284,320.529785 297.397949,321.616333 
	C298.517365,322.627441 299.367981,323.417450 300.605347,324.297363 
	C302.063263,327.406830 305.561554,328.716919 305.929230,332.470978 
	C305.636658,333.554230 305.128204,334.061676 304.268921,334.747131 
z"/>
<path fill="#635C53" opacity="1.000000" stroke="none" 
	d="
M386.163574,377.900513 
	C383.924011,384.629242 378.714447,387.674133 372.465698,389.989990 
	C369.392975,391.069275 366.553284,390.193207 363.425354,390.762024 
	C358.167694,389.866302 355.612335,385.747467 352.103027,382.353882 
	C351.543335,381.108246 351.545441,380.178375 352.404633,379.040588 
	C355.994446,379.931244 359.208740,378.833710 362.799133,378.347839 
	C363.566162,378.692230 363.926605,379.004578 364.361969,379.723480 
	C363.405151,385.254883 364.465546,386.300415 369.760193,384.951416 
	C376.406250,383.258057 380.581573,378.810242 382.589508,372.440674 
	C383.878876,368.350494 382.287506,366.870728 377.605804,367.570404 
	C376.765594,367.426178 376.345612,367.187164 375.752899,366.563507 
	C375.110260,365.316864 375.227966,364.347565 375.506470,363.032867 
	C377.716003,358.705597 372.612366,357.709869 372.293274,354.378387 
	C372.419373,353.287750 372.783905,352.685242 373.676971,352.045685 
	C378.644379,355.578156 382.753723,359.812744 386.897400,364.441284 
	C387.838654,367.045868 387.463898,369.465118 387.625916,372.264282 
	C387.467163,373.901642 387.535370,375.101257 387.260284,376.703674 
	C387.070496,377.110291 387.059967,377.038116 387.096436,377.039215 
	C386.825378,377.211151 386.560974,377.434021 386.163574,377.900513 
z"/>
<path fill="#4A4C4D" opacity="1.000000" stroke="none" 
	d="
M113.159653,230.171448 
	C112.972130,229.951538 112.810013,229.688995 112.903152,229.566010 
	C112.308907,228.299133 112.526451,227.047012 112.778702,225.405243 
	C112.318962,222.330475 111.499107,219.684601 111.960220,216.453552 
	C112.613342,215.509567 113.375130,215.532166 114.509285,215.939697 
	C116.438957,217.345062 116.842293,219.101654 117.054482,220.961777 
	C119.276825,240.442780 128.647751,256.449036 141.540298,271.147522 
	C143.038681,272.932983 145.146454,273.723572 145.564453,276.331848 
	C145.398651,277.807587 144.735825,278.511139 143.362579,278.979095 
	C142.683640,278.917633 142.430695,278.740112 142.110321,278.288025 
	C141.592667,277.584442 140.994064,277.510925 140.177887,277.209351 
	C139.924088,277.059143 139.961319,277.007629 139.975525,277.036072 
	C139.753769,276.754242 139.477051,276.486053 138.884064,276.166870 
	C138.070694,275.529816 137.532745,274.985870 136.973785,274.151306 
	C136.691254,273.665466 136.434387,273.464294 135.975800,273.125671 
	C135.769424,272.994202 135.349472,273.048553 135.349472,273.048553 
	C135.349472,273.048553 135.025665,272.775665 135.013245,272.564331 
	C134.840988,271.990021 134.627930,271.661591 134.109161,271.213928 
	C133.856674,271.060120 133.932953,271.059570 133.929626,271.097534 
	C133.773376,270.826050 133.568756,270.555725 133.088394,270.199158 
	C132.864441,270.073669 133.000000,270.002747 132.932922,270.040497 
	C132.556320,269.549347 132.517303,268.921051 132.009735,268.184814 
	C131.777603,267.989960 131.368973,268.036255 131.368973,268.036255 
	C131.368973,268.036255 131.049194,267.777679 131.021759,267.573883 
	C130.844971,267.004089 130.638351,266.673950 130.123993,266.224792 
	C129.873566,266.069946 129.995621,266.053589 129.935028,266.070770 
	C129.555283,265.551178 129.518570,264.906128 128.968567,264.175079 
	C124.117737,260.073914 122.713058,254.223068 119.834877,249.265839 
	C119.187706,248.151199 118.756866,246.910980 118.114243,245.391296 
	C117.548019,244.603546 117.518425,243.975220 117.097351,243.213562 
	C116.877769,243.008179 116.948463,243.021362 116.936066,243.055115 
	C116.427750,242.389313 116.531479,241.568436 116.333572,240.511139 
	C114.695694,237.896103 115.018913,234.790359 113.037354,232.301636 
	C113.516403,231.521576 113.506691,230.971893 113.159653,230.171448 
z"/>
<path fill="#483C3B" opacity="1.000000" stroke="none" 
	d="
M353.165771,378.820984 
	C352.705597,379.924805 352.459442,380.716339 352.071289,381.788574 
	C345.349579,375.057098 337.717438,369.124237 331.387909,361.842041 
	C324.920532,354.401245 316.435669,349.046387 310.040527,341.509247 
	C308.989532,340.270569 307.389343,339.454803 307.029968,337.307526 
	C306.346008,336.499451 305.641052,336.100677 304.980988,335.198822 
	C304.744995,335.013306 304.372833,335.057190 304.188232,335.025604 
	C304.334412,334.345367 304.665161,333.696716 305.268799,332.800079 
	C305.879181,332.286316 306.260315,332.113983 306.996582,332.013458 
	C307.521545,332.048676 307.728516,332.091583 308.224640,332.261780 
	C309.049133,332.712067 309.437103,333.210632 310.177887,333.760437 
	C310.567810,334.080872 310.712769,334.221680 311.041534,334.601288 
	C311.491180,335.376953 311.812897,335.875092 312.481293,336.489655 
	C312.871582,336.825714 313.018677,336.973663 313.347900,337.378784 
	C314.070526,338.296082 314.641693,338.926453 315.578918,339.642456 
	C316.189026,340.089447 316.507141,340.381165 317.021942,340.932526 
	C318.035065,342.494934 319.180511,343.390259 320.909241,344.096375 
	C330.781616,354.911438 341.634399,364.282013 351.793030,374.861420 
	C352.765717,376.146606 353.570618,377.128571 353.165771,378.820984 
z"/>
<path fill="#483C3B" opacity="1.000000" stroke="none" 
	d="
M373.856049,351.600586 
	C373.802429,352.461578 373.597321,353.029572 373.172363,353.810242 
	C372.603851,354.304657 372.202515,354.434265 371.431274,354.380951 
	C370.898224,354.245178 370.691162,354.165710 370.185242,353.935242 
	C369.697235,353.663147 369.508087,353.542114 368.783142,353.004028 
	C368.076202,352.435211 367.905060,352.283417 367.484955,351.893311 
	C360.529114,344.636505 353.577545,337.861572 346.452881,330.778870 
	C345.630463,329.883911 345.250488,329.056610 344.227051,328.369202 
	C343.789490,328.049622 343.626709,327.905151 343.258606,327.506958 
	C342.607910,326.517242 342.422668,325.648560 341.728271,324.671936 
	C341.247681,323.794800 340.959808,323.190002 340.717834,322.196045 
	C340.630554,321.140198 340.731812,320.450195 341.573120,319.345795 
	C353.026276,329.312653 363.851685,339.835999 373.856049,351.600586 
z"/>
<path fill="#363738" opacity="1.000000" stroke="none" 
	d="
M191.447784,301.224487 
	C190.492935,300.828735 189.915787,300.643799 189.163544,300.206329 
	C187.490509,299.644135 185.968430,299.533783 184.115906,299.215668 
	C183.783081,299.027405 183.359695,298.999786 183.152222,298.955566 
	C182.594528,298.420288 182.489334,297.881256 182.878967,296.946259 
	C186.427811,295.270172 189.798141,295.968048 193.572021,296.239746 
	C205.001968,297.487549 215.758133,295.681946 226.492096,293.555908 
	C227.818420,293.293243 229.141586,293.523407 230.716782,294.380493 
	C232.086700,296.353607 231.164383,297.219238 229.260086,297.970215 
	C227.352585,300.570618 224.787766,299.403748 222.708313,299.875214 
	C218.375534,300.857544 214.112579,302.348572 209.201813,301.891724 
	C205.501175,301.032288 202.093765,301.718353 198.293518,301.499329 
	C195.851807,301.472015 193.837494,301.562042 191.447784,301.224487 
z"/>
<path fill="#363738" opacity="1.000000" stroke="none" 
	d="
M114.627838,216.665863 
	C113.715744,216.733124 113.113762,216.503571 112.213661,216.152023 
	C111.915543,216.030045 111.958733,215.986328 111.981613,216.006958 
	C110.973068,212.696198 111.685928,209.288574 111.773621,205.503357 
	C111.984253,204.000397 111.983955,202.911575 111.988861,201.414490 
	C110.855865,198.774063 112.114853,196.754852 112.776627,194.313004 
	C112.949257,193.261826 112.902802,192.560791 112.902374,191.510773 
	C113.531914,189.673447 113.487869,188.097717 113.845718,186.244812 
	C116.225891,179.667419 118.162193,173.313385 121.602409,167.206299 
	C122.342552,166.621017 122.887054,166.465256 123.880173,166.671356 
	C125.867722,168.846802 125.394623,170.973938 124.420662,172.957611 
	C118.349136,185.323502 116.856003,198.647522 116.092766,212.132263 
	C116.007942,213.630951 115.997726,215.140442 114.627838,216.665863 
z"/>
<path fill="#555B5D" opacity="1.000000" stroke="none" 
	d="
M229.122589,298.317566 
	C229.542892,297.220612 230.222519,296.329010 230.944580,295.099731 
	C230.805618,292.911163 232.095200,291.962524 233.457306,291.437378 
	C240.286087,288.804382 246.641815,285.268799 252.932465,281.584381 
	C253.941116,280.993622 255.126968,280.858032 256.691223,281.098572 
	C258.075867,281.635101 258.687714,282.470886 259.342346,283.740234 
	C250.513443,291.196045 240.405243,295.814240 229.122589,298.317566 
z"/>
<path fill="#363738" opacity="1.000000" stroke="none" 
	d="
M271.269928,149.656830 
	C261.535126,139.489655 249.710220,132.394897 237.110382,125.998405 
	C238.814987,123.102615 240.523666,125.233780 242.148636,125.900185 
	C251.885773,129.893356 260.248810,136.063843 268.645294,142.794891 
	C269.171173,143.212234 269.421021,143.444992 269.901306,143.797760 
	C270.121613,143.928635 270.044952,143.936203 270.044312,143.897690 
	C270.215027,144.168320 270.430969,144.442352 270.916199,144.818848 
	C271.140900,144.956482 271.053864,145.003677 271.082092,144.963028 
	C271.386261,145.365356 271.514252,145.847595 271.505524,146.750366 
	C271.619751,147.878754 271.866669,148.625122 271.269928,149.656830 
z"/>
<path fill="#555B5D" opacity="1.000000" stroke="none" 
	d="
M282.270020,302.159790 
	C281.307678,301.547760 280.735046,301.014893 280.070282,300.200806 
	C279.536163,299.537384 278.969330,299.509918 278.187622,299.263550 
	C277.936005,299.148987 278.015717,299.055145 277.968933,299.093872 
	C277.769531,298.822693 277.565063,298.551910 277.086060,298.192139 
	C276.863403,298.063995 276.952118,298.055634 276.953369,298.100159 
	C276.759918,297.796478 276.505768,297.500458 275.915466,297.136719 
	C272.378052,291.982544 266.246735,289.682983 263.455933,284.169220 
	C262.776428,282.826721 261.618195,283.013245 260.256653,284.053375 
	C258.684875,281.504608 260.246490,280.438019 262.778870,279.635986 
	C265.399902,279.769745 267.280762,280.684998 269.196625,282.380310 
	C271.416504,284.561523 272.970337,286.874725 275.477539,288.734375 
	C277.619934,290.369843 279.333374,291.960602 281.060516,294.064575 
	C282.491394,295.981598 284.083435,297.403320 284.106598,300.044495 
	C283.864960,301.244293 283.434998,301.877502 282.270020,302.159790 
z"/>
<path fill="#555B5D" opacity="1.000000" stroke="none" 
	d="
M175.265701,124.521667 
	C172.605621,125.958382 170.174957,127.066742 167.450089,128.401947 
	C163.563080,133.645599 158.621582,136.306564 152.192657,136.827515 
	C151.182831,136.157333 150.815460,135.493454 150.835632,134.288742 
	C150.992767,133.575455 151.165558,133.317520 151.678802,133.067963 
	C152.168945,132.780289 152.424057,132.552109 152.800827,132.094360 
	C152.928696,131.871719 152.988770,132.000763 152.953613,131.938110 
	C153.681030,131.374374 154.562973,131.557388 155.676117,131.297302 
	C161.425201,126.833054 167.667496,124.050583 174.620544,121.947769 
	C175.608490,122.622597 175.738892,123.366524 175.265701,124.521667 
z"/>
<path fill="#363738" opacity="1.000000" stroke="none" 
	d="
M263.921082,280.812805 
	C261.957397,281.165863 260.361786,281.451813 259.875610,283.761566 
	C259.915680,284.113312 259.679321,284.168915 259.560730,284.142822 
	C258.682129,283.625977 257.922058,283.135284 257.074097,282.306885 
	C256.936981,279.089905 259.200104,277.896240 261.027985,276.357056 
	C262.386017,275.213440 263.575958,273.894409 264.760681,272.116028 
	C268.107849,269.112854 270.196930,265.161194 274.731445,263.853149 
	C276.414337,264.238159 276.925659,265.134399 276.954468,266.769226 
	C276.522522,269.699036 275.264984,271.830780 273.121918,273.853027 
	C270.372803,276.778259 268.256256,279.983856 263.921082,280.812805 
z"/>
<path fill="#555B5D" opacity="1.000000" stroke="none" 
	d="
M298.284058,285.748901 
	C298.152222,286.286591 298.296509,286.630280 298.671783,287.483093 
	C298.687561,288.104065 298.472351,288.215881 297.896851,288.382019 
	C297.049347,288.443970 296.562866,288.427643 295.714355,288.331879 
	C288.708191,284.222717 283.894653,278.248505 278.861542,272.516388 
	C277.980865,271.513397 277.522980,270.216675 277.826080,268.471619 
	C278.133026,267.244354 278.287964,266.349792 278.710815,265.236267 
	C279.108490,267.180939 280.753601,267.937927 282.694214,268.848358 
	C283.203278,269.245056 283.435028,269.469269 283.903015,269.782898 
	C284.117889,269.894379 284.022705,269.969238 284.055817,269.918549 
	C284.233246,270.176544 284.432129,270.444763 284.908936,270.791870 
	C285.132202,270.911255 285.049683,270.992126 285.099792,270.963196 
	C285.446594,271.457642 285.485657,272.067047 285.920166,272.824127 
	C286.129761,273.033844 285.962738,273.031738 285.961853,272.948212 
	C286.359711,273.373901 286.943176,273.490509 287.799438,273.727417 
	C288.069977,273.852539 287.993896,273.975372 288.038330,273.919128 
	C288.228638,274.170715 288.425415,274.440613 288.904816,274.784943 
	C289.128937,274.902832 289.108154,274.951416 289.134399,274.948212 
	C289.410461,275.428741 289.494385,275.957855 289.750916,276.693970 
	C292.428223,279.526306 294.937103,282.150604 297.763367,284.927307 
	C298.240570,285.238129 298.400360,285.396515 298.284058,285.748901 
z"/>
<path fill="#363738" opacity="1.000000" stroke="none" 
	d="
M216.301590,120.698792 
	C205.543549,119.731377 195.169449,120.281769 184.420639,122.074860 
	C183.396118,121.414024 183.222214,120.689438 183.750488,119.522591 
	C187.709869,118.793533 191.459000,118.404449 195.593872,118.007889 
	C201.048355,116.944099 206.170303,117.720528 211.690292,117.781387 
	C212.559097,118.007263 213.002563,118.008354 213.775757,118.055710 
	C214.830368,118.682953 215.663055,118.470161 216.716492,118.232040 
	C217.529510,118.204117 218.099243,118.367691 218.828339,118.788635 
	C219.229370,121.174866 217.570679,120.302612 216.301590,120.698792 
z"/>
<path fill="#483C3B" opacity="1.000000" stroke="none" 
	d="
M319.848511,300.323547 
	C320.573547,299.752502 321.120239,299.497406 321.935516,299.103760 
	C329.256134,304.877258 335.351593,311.755066 341.924316,318.607971 
	C342.097687,318.889923 342.000793,318.993469 341.951996,319.044922 
	C341.323578,319.631317 340.684540,320.062805 339.513062,320.281616 
	C337.512085,320.210754 336.181000,319.426208 334.585144,318.332001 
	C330.199219,314.077301 326.085907,310.076141 322.363953,305.698425 
	C321.096191,304.207306 319.579071,302.852600 319.848511,300.323547 
z"/>
<path fill="#3F4144" opacity="1.000000" stroke="none" 
	d="
M175.247345,297.104523 
	C168.520584,295.089172 161.958817,293.533905 156.340240,289.013916 
	C155.210052,287.931122 155.384476,286.939789 156.417633,285.702850 
	C157.473282,285.030090 158.355057,284.710236 159.109085,284.995239 
	C165.701447,287.486877 172.439362,289.693054 178.240295,294.491699 
	C178.338181,296.692566 177.020111,296.910858 175.247345,297.104523 
z"/>
<path fill="#3F4144" opacity="1.000000" stroke="none" 
	d="
M124.915894,167.146210 
	C123.943962,167.101181 123.346542,167.060593 122.299881,166.990356 
	C123.153168,164.496521 124.455711,162.032303 125.904610,159.248749 
	C126.502533,158.533920 126.484024,157.958420 126.735710,157.194580 
	C126.850906,156.946899 126.879700,156.929291 126.886688,156.913940 
	C127.198235,156.739731 127.476669,156.543747 127.911133,156.130005 
	C128.379791,155.784714 128.607727,155.560562 128.923004,155.083862 
	C129.515793,154.500366 129.484314,153.924744 129.754089,153.176758 
	C129.870407,152.932831 129.979126,152.985992 129.930481,152.949966 
	C130.188492,152.781921 130.454849,152.593079 130.850464,152.168762 
	C131.598190,151.454437 132.176361,150.918747 132.914948,150.133575 
	C133.515823,149.493301 133.484818,148.921310 133.753113,148.177353 
	C133.868225,147.934601 133.879990,147.889587 133.902100,147.882294 
	C134.377472,147.632782 134.853912,147.451462 135.738129,147.318237 
	C136.630173,147.435791 137.067078,147.687866 137.634567,148.387268 
	C138.203888,149.683685 138.285172,150.765793 137.767563,151.593140 
	C134.220337,157.262970 130.897736,163.128738 124.915894,167.146210 
z"/>
<path fill="#4A4C4D" opacity="1.000000" stroke="none" 
	d="
M137.508270,149.490494 
	C136.887726,148.985275 136.597504,148.636032 136.031113,148.085785 
	C135.555939,147.485138 135.483002,147.065521 135.731506,146.346313 
	C139.831314,141.046249 145.182587,137.770309 150.641068,134.089050 
	C151.278610,134.559174 151.625534,135.210129 152.127960,136.195435 
	C149.434113,143.066666 144.069489,146.833557 137.508270,149.490494 
z"/>
<path fill="#4A4C4D" opacity="1.000000" stroke="none" 
	d="
M281.875732,302.369995 
	C282.220978,301.592072 282.561615,301.103485 282.950562,300.314606 
	C285.505554,295.748901 288.499939,292.003174 293.751953,290.297607 
	C294.590820,290.493256 294.997894,290.753693 295.491058,291.451294 
	C295.824158,295.839569 292.789490,298.111664 290.138214,299.952026 
	C285.615814,303.091217 284.172363,306.842407 285.459351,312.257751 
	C284.921936,313.203735 284.572205,313.851166 284.051819,314.825165 
	C283.297943,314.681610 282.714813,314.211548 282.068817,313.465454 
	C281.804260,312.890839 281.582123,312.608459 281.101959,312.210693 
	C280.867889,312.076324 280.962219,312.024719 280.930084,312.067810 
	C280.102417,309.725677 280.631378,307.278778 280.758606,304.447388 
	C281.261658,303.576385 281.566376,303.117828 281.875732,302.369995 
z"/>
<path fill="#555B5D" opacity="1.000000" stroke="none" 
	d="
M157.128448,284.989624 
	C156.792343,286.315491 156.470367,287.270142 156.066620,288.593994 
	C151.721497,285.895660 146.983215,283.474060 143.139099,279.326355 
	C143.435913,278.457733 143.884384,277.892731 144.560486,277.177246 
	C150.453690,277.039032 154.190308,280.190491 157.128448,284.989624 
z"/>
<path fill="#555B5D" opacity="1.000000" stroke="none" 
	d="
M216.363525,120.968002 
	C216.858826,120.401917 217.733047,119.952454 218.797485,119.274506 
	C224.453217,118.827682 229.270782,121.626724 234.807678,122.639999 
	C235.421310,123.444412 235.490189,124.023155 235.021561,124.996887 
	C228.746155,123.935158 222.744293,122.509895 216.363525,120.968002 
z"/>
<path fill="#363738" opacity="1.000000" stroke="none" 
	d="
M293.038666,184.567841 
	C292.341248,184.971832 291.600464,184.984604 290.489746,184.993393 
	C288.826324,181.574219 287.532867,178.159027 286.195862,174.385712 
	C286.664856,173.459625 287.299530,173.185059 288.410004,173.342758 
	C289.418457,173.919556 289.490845,174.634491 289.732239,175.664185 
	C292.406647,178.156937 292.715332,181.161392 293.038666,184.567841 
z"/>
<path fill="#3F4144" opacity="1.000000" stroke="none" 
	d="
M284.833618,168.007248 
	C281.222107,166.709824 281.436859,162.827484 279.038330,160.352768 
	C279.570709,159.194839 278.901642,158.113785 279.760071,157.042755 
	C282.332062,159.144928 283.899994,161.915436 284.971863,165.364441 
	C285.409637,166.344925 285.477570,167.032761 284.833618,168.007248 
z"/>
<path fill="#3F4144" opacity="1.000000" stroke="none" 
	d="
M183.616547,119.274460 
	C183.970245,119.898956 183.979767,120.615303 183.992203,121.690926 
	C181.406906,123.434387 178.173691,122.874077 175.397751,124.816040 
	C175.041809,124.133072 175.047333,123.416115 175.029266,122.341232 
	C177.761215,121.110962 180.516785,120.238632 183.616547,119.274460 
z"/>
<path fill="#363738" opacity="1.000000" stroke="none" 
	d="
M279.890594,156.539444 
	C279.834351,157.710617 279.637939,158.618103 279.193695,159.772232 
	C277.323700,157.995346 275.701508,155.971832 273.966187,153.646057 
	C273.498474,152.399811 273.196350,151.450638 273.895172,150.059631 
	C274.501373,149.981232 274.778381,150.278351 275.069977,150.885727 
	C275.547211,151.486206 276.096100,151.491516 276.835968,151.770523 
	C277.074554,151.887054 277.076385,151.924469 277.095093,151.925690 
	C277.391998,152.407196 277.494263,152.940704 277.758453,153.686081 
	C278.539581,154.687790 279.144989,155.481781 279.890594,156.539444 
z"/>
<path fill="#555B5D" opacity="1.000000" stroke="none" 
	d="
M175.091217,297.426453 
	C175.738098,296.607788 176.622147,296.058807 177.742126,295.298340 
	C179.838211,293.404236 181.378677,294.141815 182.905930,296.114990 
	C183.001526,297.040283 182.998657,297.575317 182.970276,298.510864 
	C180.066452,300.634125 178.019165,297.148560 175.091217,297.426453 
z"/>
<path fill="#99A2A1" opacity="1.000000" stroke="none" 
	d="
M211.924240,117.603058 
	C207.048691,118.027115 201.981766,118.048058 196.447220,118.034698 
	C201.132019,115.791611 206.479706,117.426125 211.924240,117.603058 
z"/>
<path fill="#A9B5B3" opacity="1.000000" stroke="none" 
	d="
M296.390442,215.898331 
	C295.981628,211.671478 295.966614,207.243866 295.972351,202.342041 
	C298.195923,206.366806 296.594940,211.083405 296.390442,215.898331 
z"/>
<path fill="#4A4C4D" opacity="1.000000" stroke="none" 
	d="
M284.366455,168.251373 
	C284.547668,167.699341 284.725922,167.129257 284.999054,166.120392 
	C285.990051,166.329132 286.925659,166.945694 287.028870,168.518707 
	C287.908569,170.311081 288.784058,171.792374 288.999451,173.753632 
	C288.104950,174.030624 287.454102,174.029877 286.477753,174.028366 
	C285.788910,173.116669 285.425537,172.205734 285.352814,171.044922 
	C285.901306,169.908813 285.498810,169.141953 284.784119,168.299561 
	C284.365631,168.243240 284.363464,168.233322 284.366455,168.251373 
z"/>
<path fill="#3F4144" opacity="1.000000" stroke="none" 
	d="
M274.155945,149.365738 
	C274.128632,150.599014 274.032867,151.513916 273.895020,152.886322 
	C272.971497,152.412613 272.090027,151.481415 271.110474,150.244766 
	C271.026459,149.161331 271.040466,148.383316 271.068787,147.216461 
	C271.215149,146.673828 271.347229,146.520065 271.675659,146.598480 
	C272.610504,147.569534 273.348999,148.308456 274.155945,149.365738 
z"/>
<path fill="#A9B5B3" opacity="1.000000" stroke="none" 
	d="
M111.597145,205.255997 
	C112.000740,208.429764 112.016930,211.770309 112.018799,215.569214 
	C109.923874,212.628723 111.458099,208.958954 111.597145,205.255997 
z"/>
<path fill="#A9B5B3" opacity="1.000000" stroke="none" 
	d="
M198.390594,301.586548 
	C201.411041,301.191040 204.890411,301.214417 208.608459,301.568848 
	C205.514587,301.935028 202.182037,301.970215 198.390594,301.586548 
z"/>
<path fill="#D5ECE2" opacity="1.000000" stroke="none" 
	d="
M112.632111,194.098694 
	C112.695297,196.049942 112.394890,198.137009 112.044266,200.615143 
	C110.290199,198.676208 110.170197,196.410400 112.632111,194.098694 
z"/>
<path fill="#BEC5C9" opacity="1.000000" stroke="none" 
	d="
M387.674805,372.704895 
	C387.094757,370.593567 386.940674,368.122009 386.903107,365.197021 
	C388.677917,367.092712 388.326172,369.727661 387.674805,372.704895 
z"/>
<path fill="#D5ECE2" opacity="1.000000" stroke="none" 
	d="
M363.496399,390.990906 
	C365.555115,389.007599 368.606903,390.883362 371.668365,389.901215 
	C369.630493,392.366821 366.590790,390.117523 363.496399,390.990906 
z"/>
<path fill="#DBEDEC" opacity="1.000000" stroke="none" 
	d="
M288.855835,174.320374 
	C288.133362,172.538010 287.510864,171.044647 286.942078,169.199615 
	C289.418976,170.292511 290.141022,172.531189 289.934387,175.583649 
	C289.592834,175.519577 289.274353,175.064468 288.855835,174.320374 
z"/>
<path fill="#D9EEE8" opacity="1.000000" stroke="none" 
	d="
M280.566833,304.175110 
	C281.084473,306.499237 280.506226,309.020111 281.223267,311.760956 
	C278.904572,309.674530 280.496887,306.906433 280.566833,304.175110 
z"/>
<path fill="#F3F5F2" opacity="1.000000" stroke="none" 
	d="
M295.895203,195.381927 
	C294.711761,194.597366 293.813263,193.308502 293.982300,191.191772 
	C297.420807,190.896805 295.523468,193.488144 295.895203,195.381927 
z"/>
<path fill="#F3F5F2" opacity="1.000000" stroke="none" 
	d="
M197.503937,301.120331 
	C197.931686,301.167694 197.939240,301.499634 197.943237,301.665588 
	C195.729294,301.823517 193.511353,301.815491 191.181747,301.410583 
	C193.072113,301.033417 195.074158,301.053192 197.503937,301.120331 
z"/>
<path fill="#555B5D" opacity="1.000000" stroke="none" 
	d="
M183.931000,299.327454 
	C185.350662,298.831482 186.900909,298.804291 188.682663,299.726685 
	C187.296875,300.673492 185.674164,300.357147 183.931000,299.327454 
z"/>
<path fill="#BEC5C9" opacity="1.000000" stroke="none" 
	d="
M113.739349,185.978455 
	C114.694908,187.598251 114.091896,189.107864 113.247765,190.893066 
	C112.923225,189.430389 112.570312,187.671600 113.739349,185.978455 
z"/>
<path fill="#D5ECE2" opacity="1.000000" stroke="none" 
	d="
M298.338837,285.982605 
	C298.007935,285.942902 297.958710,285.504059 298.019714,285.291931 
	C298.809509,284.709137 299.538300,284.338501 300.590027,283.973999 
	C301.106720,283.838531 301.300446,283.696930 301.765137,283.792206 
	C300.914001,284.693512 299.791870,285.357910 298.338837,285.982605 
z"/>
<path fill="#F3F5F2" opacity="1.000000" stroke="none" 
	d="
M302.426636,284.016418 
	C301.849365,284.011749 301.662598,283.994415 301.194458,283.978577 
	C302.246185,282.075714 304.084351,283.259857 305.824463,283.558350 
	C304.892914,283.949402 303.855042,283.976562 302.426636,284.016418 
z"/>
<path fill="#DBEDEC" opacity="1.000000" stroke="none" 
	d="
M112.626724,225.113525 
	C113.128212,226.202209 113.261627,227.410538 113.195671,229.030945 
	C111.391434,228.277863 111.907097,226.741135 112.626724,225.113525 
z"/>
<path fill="#DBEDEC" opacity="1.000000" stroke="none" 
	d="
M387.154175,373.475342 
	C387.248840,373.065155 387.530548,373.081635 387.670288,373.061951 
	C387.796295,374.296509 387.782593,375.550781 387.419678,376.957642 
	C386.198395,376.038330 387.057281,374.960480 387.154175,373.475342 
z"/>
<path fill="#E0F0F1" opacity="1.000000" stroke="none" 
	d="
M286.439636,253.944641 
	C284.591583,253.005447 286.219177,252.199158 286.748169,251.091827 
	C287.014282,251.881226 286.893646,252.837967 286.439636,253.944641 
z"/>
<path fill="#BCC4C8" opacity="1.000000" stroke="none" 
	d="
M116.134903,240.578156 
	C116.577232,241.009811 116.944550,241.780899 117.117775,242.820435 
	C115.525452,242.806808 115.980957,241.787292 116.134903,240.578156 
z"/>
<path fill="#635C53" opacity="1.000000" stroke="none" 
	d="
M304.860413,335.332458 
	C305.385712,335.491913 306.026398,335.970551 306.832153,336.704102 
	C306.053528,336.940491 305.167877,336.832245 304.860413,335.332458 
z"/>
<path fill="#D5ECE2" opacity="1.000000" stroke="none" 
	d="
M155.605804,131.133484 
	C155.094604,131.590683 154.230087,132.030289 153.142029,132.172668 
	C153.354340,130.570908 154.369064,131.045151 155.605804,131.133484 
z"/>
<path fill="#DBEDEC" opacity="1.000000" stroke="none" 
	d="
M135.617050,146.083557 
	C135.900696,146.474777 135.893646,146.879883 135.820770,147.584885 
	C135.271057,148.120392 134.787155,148.355972 134.113739,148.233292 
	C134.391586,147.282486 134.858978,146.689972 135.617050,146.083557 
z"/>
<path fill="#E0F0F1" opacity="1.000000" stroke="none" 
	d="
M288.442902,249.942169 
	C286.466095,248.987823 288.263763,248.185440 288.770142,247.106812 
	C289.044403,247.917236 288.908508,248.856689 288.442902,249.942169 
z"/>
<path fill="#555B5D" opacity="1.000000" stroke="none" 
	d="
M216.603912,117.996651 
	C216.311371,119.090263 215.438553,118.990204 214.299683,118.311874 
	C214.819687,118.052231 215.533859,118.002487 216.603912,117.996651 
z"/>
<path fill="#D5ECE2" opacity="1.000000" stroke="none" 
	d="
M276.979187,151.589279 
	C276.436768,153.148636 276.047638,151.999725 275.326111,151.463806 
	C275.684326,151.227829 276.284058,151.259674 276.979187,151.589279 
z"/>
<path fill="#BEC5C9" opacity="1.000000" stroke="none" 
	d="
M126.542343,157.023636 
	C128.255051,157.560303 126.999687,158.100006 126.427078,158.799225 
	C126.111908,158.319717 126.172844,157.710052 126.542343,157.023636 
z"/>
<path fill="#DBEDEC" opacity="1.000000" stroke="none" 
	d="
M133.578094,148.030380 
	C135.317459,148.526001 134.086761,149.077286 133.458984,149.763702 
	C133.146210,149.298111 133.217087,148.712128 133.578094,148.030380 
z"/>
<path fill="#D5ECE2" opacity="1.000000" stroke="none" 
	d="
M277.967987,153.583893 
	C277.021240,153.741135 276.699768,153.025482 276.758667,152.106339 
	C277.869965,152.072586 278.065460,152.587860 277.967987,153.583893 
z"/>
<path fill="#363738" opacity="1.000000" stroke="none" 
	d="
M235.106018,125.502075 
	C234.833237,124.814102 234.918457,124.267776 235.046021,123.309280 
	C235.088333,122.897118 235.547852,122.942795 235.776581,122.974411 
	C236.163849,123.263695 236.322388,123.521355 236.360077,124.216415 
	C236.356766,125.278214 236.100006,125.609459 235.106018,125.502075 
z"/>
<path fill="#D5ECE2" opacity="1.000000" stroke="none" 
	d="
M129.576691,153.026001 
	C131.261597,153.546143 130.015427,154.073730 129.441986,154.763107 
	C129.140274,154.300323 129.211624,153.709747 129.576691,153.026001 
z"/>
<path fill="#D5ECE2" opacity="1.000000" stroke="none" 
	d="
M271.920288,146.529160 
	C271.871979,146.830627 271.477325,146.863663 271.280212,146.845642 
	C270.849670,146.326797 270.616272,145.826004 270.746613,145.123779 
	C271.841980,145.064529 272.071564,145.536804 271.920288,146.529160 
z"/>
<path fill="#D5ECE2" opacity="1.000000" stroke="none" 
	d="
M278.040771,299.446625 
	C278.569946,297.814362 279.061371,299.051788 279.794495,299.580688 
	C279.367279,299.861145 278.756409,299.802704 278.040771,299.446625 
z"/>
<path fill="#D5ECE2" opacity="1.000000" stroke="none" 
	d="
M283.300049,258.973938 
	C282.531403,258.202911 282.955170,257.552765 283.762573,256.956787 
	C283.976410,257.649475 283.806854,258.288086 283.300049,258.973938 
z"/>
<path fill="#F3F5F2" opacity="1.000000" stroke="none" 
	d="
M286.076752,272.718079 
	C285.042419,272.967957 284.567078,272.256836 284.731934,271.122864 
	C285.913239,271.142639 286.025116,271.738800 286.076752,272.718079 
z"/>
<path fill="#F3F5F2" opacity="1.000000" stroke="none" 
	d="
M287.945038,273.557800 
	C287.325470,275.536224 286.802460,274.000366 286.076904,273.294006 
	C286.580658,272.997467 287.200378,273.130280 287.945038,273.557800 
z"/>
<path fill="#F3F5F2" opacity="1.000000" stroke="none" 
	d="
M289.952576,276.602051 
	C289.013916,276.703522 288.499542,276.143768 288.766296,275.085876 
	C289.879578,275.127472 290.029022,275.656158 289.952576,276.602051 
z"/>
<path fill="#D5ECE2" opacity="1.000000" stroke="none" 
	d="
M131.877029,268.300201 
	C132.852386,268.010590 133.236343,268.813751 133.243134,269.847534 
	C132.067154,269.893280 131.952759,269.293701 131.877029,268.300201 
z"/>
<path fill="#555B5D" opacity="1.000000" stroke="none" 
	d="
M140.067139,277.339355 
	C140.488190,277.241760 141.052277,277.424377 141.804199,277.846466 
	C141.398087,277.930481 140.804138,277.774994 140.067139,277.339355 
z"/>
<path fill="#BCC4C8" opacity="1.000000" stroke="none" 
	d="
M116.938324,243.327591 
	C117.837151,242.972198 117.907204,243.682053 118.007561,244.707947 
	C117.227646,244.898727 117.012756,244.344528 116.938324,243.327591 
z"/>
<path fill="#DBEDEC" opacity="1.000000" stroke="none" 
	d="
M112.971802,230.287811 
	C114.617500,230.080551 114.069031,231.065933 113.389236,231.963501 
	C113.005531,231.519730 112.988503,231.071915 112.971802,230.287811 
z"/>
<path fill="#D5ECE2" opacity="1.000000" stroke="none" 
	d="
M284.380554,257.003601 
	C283.280396,256.309601 283.949646,255.716934 284.750946,255.027145 
	C284.993286,255.609360 284.845184,256.250946 284.380554,257.003601 
z"/>
<path fill="#BEC5C9" opacity="1.000000" stroke="none" 
	d="
M128.830643,264.304382 
	C129.784271,263.935181 130.134201,264.709503 130.174667,265.791260 
	C129.010117,265.952393 128.897186,265.336548 128.830643,264.304382 
z"/>
<path fill="#D5ECE2" opacity="1.000000" stroke="none" 
	d="
M152.662659,131.957642 
	C153.233749,132.349289 153.161301,132.734406 152.278503,133.006683 
	C152.070602,132.682175 152.233612,132.362869 152.662659,131.957642 
z"/>
<path fill="#BEC5C9" opacity="1.000000" stroke="none" 
	d="
M129.948853,266.363373 
	C130.494507,265.733673 130.948334,265.888885 131.115082,266.951630 
	C130.670914,267.132324 130.347519,266.894562 129.948853,266.363373 
z"/>
<path fill="#E0F0F1" opacity="1.000000" stroke="none" 
	d="
M285.263275,255.061920 
	C285.131744,254.634903 285.277496,254.138718 285.779907,253.851532 
	C285.937897,254.371262 285.739227,254.681992 285.263275,255.061920 
z"/>
<path fill="#555B5D" opacity="1.000000" stroke="none" 
	d="
M236.266693,124.619827 
	C236.186050,124.381195 236.132889,124.108566 236.042511,123.420990 
	C236.244827,123.364738 236.484360,123.723450 236.485229,124.369392 
	C236.246552,124.656631 236.294174,124.585831 236.266693,124.619827 
z"/>
<path fill="#DBEDEC" opacity="1.000000" stroke="none" 
	d="
M386.259521,378.019775 
	C386.156708,377.692627 386.320282,377.286255 386.808380,376.960083 
	C386.930542,377.340393 386.728210,377.640472 386.259521,378.019775 
z"/>
<path fill="#F3F5F2" opacity="1.000000" stroke="none" 
	d="
M284.026550,269.640442 
	C283.677124,270.507263 283.257019,270.496582 282.925415,269.425720 
	C283.307037,269.128021 283.621124,269.257263 284.026550,269.640442 
z"/>
<path fill="#D5ECE2" opacity="1.000000" stroke="none" 
	d="
M270.039032,143.649063 
	C269.648987,144.512222 269.225006,144.481400 268.891693,143.397476 
	C269.274170,143.101151 269.615326,143.235321 270.039032,143.649063 
z"/>
<path fill="#D5ECE2" opacity="1.000000" stroke="none" 
	d="
M271.063782,144.684723 
	C270.552429,145.403839 270.062256,145.313385 269.856781,144.273407 
	C270.357971,144.043762 270.672333,144.228363 271.063782,144.684723 
z"/>
<path fill="#D5ECE2" opacity="1.000000" stroke="none" 
	d="
M132.940964,270.335327 
	C133.446640,269.591492 133.937714,269.671906 134.132217,270.723938 
	C133.623383,270.955994 133.320435,270.776459 132.940964,270.335327 
z"/>
<path fill="#F3F5F2" opacity="1.000000" stroke="none" 
	d="
M285.044250,270.663483 
	C284.526611,271.507355 283.989990,271.449432 283.805450,270.304626 
	C284.378052,270.050476 284.667175,270.233093 285.044250,270.663483 
z"/>
<path fill="#D5ECE2" opacity="1.000000" stroke="none" 
	d="
M133.949707,271.346497 
	C134.492569,270.638855 134.965469,270.776215 135.137817,271.913452 
	C134.681458,272.112915 134.362106,271.872864 133.949707,271.346497 
z"/>
<path fill="#D5ECE2" opacity="1.000000" stroke="none" 
	d="
M135.971527,273.140381 
	C135.947128,273.350616 136.124817,273.707062 136.627640,273.962097 
	C136.693054,273.669312 136.433350,273.477936 135.971527,273.140381 
z"/>
<path fill="#E0F0F1" opacity="1.000000" stroke="none" 
	d="
M287.257690,251.055786 
	C287.132629,250.619904 287.286102,250.122253 287.786987,249.845398 
	C287.934998,250.375488 287.735596,250.684769 287.257690,251.055786 
z"/>
<path fill="#F3F5F2" opacity="1.000000" stroke="none" 
	d="
M289.040527,274.655701 
	C288.547760,275.540497 288.026367,275.498993 287.824341,274.314087 
	C288.372559,274.044800 288.662354,274.226654 289.040527,274.655701 
z"/>
<path fill="#555B5D" opacity="1.000000" stroke="none" 
	d="
M138.790237,276.305695 
	C138.950027,276.251404 139.291443,276.429047 139.811279,276.835571 
	C139.650436,276.888855 139.311142,276.713257 138.790237,276.305695 
z"/>
<path fill="#D9EEE8" opacity="1.000000" stroke="none" 
	d="
M280.955170,312.348724 
	C281.403137,311.577148 281.803314,311.666412 282.036346,312.770508 
	C281.684814,313.000000 281.363617,312.810577 280.955170,312.348724 
z"/>
<path fill="#D5ECE2" opacity="1.000000" stroke="none" 
	d="
M130.738861,151.995071 
	C130.855576,152.471695 130.691147,152.953262 130.204285,153.174377 
	C130.073807,152.609299 130.265778,152.304657 130.738861,151.995071 
z"/>
<path fill="#BEC5C9" opacity="1.000000" stroke="none" 
	d="
M127.792709,155.941437 
	C127.922615,156.427811 127.751961,156.906326 127.237488,157.141708 
	C127.093170,156.576904 127.292664,156.255234 127.792709,155.941437 
z"/>
<path fill="#D5ECE2" opacity="1.000000" stroke="none" 
	d="
M276.938477,298.326965 
	C277.428406,297.716736 277.896545,297.819092 278.095459,298.749664 
	C277.619293,298.951721 277.316437,298.770813 276.938477,298.326965 
z"/>
<path fill="#D5ECE2" opacity="1.000000" stroke="none" 
	d="
M275.806396,297.265778 
	C276.222778,296.686310 276.709900,296.786407 277.032104,297.727264 
	C276.624512,297.937592 276.294403,297.730499 275.806396,297.265778 
z"/>
<path fill="#B7C3CA" opacity="1.000000" stroke="none" 
	d="
M137.076874,149.651657 
	C141.988449,145.133072 146.473068,140.547150 152.038498,136.738602 
	C157.240616,134.304382 161.301926,130.445206 166.843811,128.672928 
	C170.900925,129.294754 173.861069,130.196167 168.966919,133.885239 
	C167.977966,134.630676 168.040970,135.908737 168.005966,137.422470 
	C165.927689,141.998581 161.577011,143.478348 157.810898,146.242661 
	C143.164413,156.617325 133.455673,170.154846 128.324448,186.917267 
	C122.237190,206.802856 123.749222,226.045792 133.853699,244.798096 
	C136.732803,252.445114 141.371399,258.409546 147.052536,263.628784 
	C148.159943,264.646118 149.330048,265.573639 149.825348,267.468567 
	C148.405685,273.096527 147.530731,273.652283 141.391632,272.975952 
	C125.839729,257.568604 116.078552,239.601471 114.494980,217.308548 
	C113.528168,199.756744 116.133026,183.242188 124.429932,167.503052 
	C128.686188,161.417450 132.830994,155.693115 137.076874,149.651657 
z"/>
<path fill="#454C4F" opacity="1.000000" stroke="none" 
	d="
M233.759949,136.439880 
	C244.095535,138.650742 251.781616,145.200348 259.128967,151.860809 
	C266.255371,158.320999 272.067902,166.012863 276.283936,174.859360 
	C281.779388,186.390564 283.856262,198.336884 283.449677,211.132462 
	C283.235535,217.872498 282.614471,224.465408 281.569214,231.500183 
	C282.972900,234.165070 282.208527,236.392380 281.284027,238.530609 
	C277.398376,247.517715 272.708008,256.021393 265.804565,263.573395 
	C263.947968,264.823181 262.474243,265.956787 261.227478,267.853455 
	C259.767395,269.590210 258.387909,270.913177 256.598999,272.336578 
	C254.025696,273.371216 252.856796,275.545105 250.968491,276.845306 
	C242.566742,282.630310 233.147552,285.939545 223.317886,288.247437 
	C222.010544,288.554382 220.693741,288.459869 219.193237,287.505646 
	C217.766190,282.781006 221.367096,282.259064 224.053223,281.675751 
	C234.250031,279.461456 242.660553,273.981415 250.793823,267.840210 
	C261.720184,259.590027 268.926880,248.626389 274.439331,236.301941 
	C278.502106,227.218582 279.922668,217.641891 280.491180,207.854904 
	C280.685974,204.501968 279.449890,201.349060 278.838715,197.747025 
	C275.873688,184.032562 270.402374,171.943817 261.530365,161.439743 
	C255.889175,154.760788 248.883575,149.804169 241.673218,145.043762 
	C238.808197,143.152237 235.266159,142.139877 233.281006,138.551453 
	C233.159119,137.668777 233.264816,137.180115 233.759949,136.439880 
z"/>
<path fill="#B7C3CA" opacity="1.000000" stroke="none" 
	d="
M263.775696,262.991455 
	C271.794647,253.861282 277.326294,243.677078 281.335266,232.225616 
	C285.057098,231.395782 286.576996,233.605652 287.821503,236.772247 
	C287.175629,245.260071 282.622833,251.977371 278.873199,259.446899 
	C277.597687,261.022644 276.439240,262.225250 275.163452,263.721252 
	C272.305969,266.951416 269.565765,269.888092 266.523163,272.953308 
	C264.315369,273.766663 262.952240,275.212524 261.401703,276.418304 
	C259.543243,277.863586 257.354675,278.017883 255.439041,276.659760 
	C253.127457,275.020966 254.715042,273.195099 255.737701,271.102844 
	C257.120544,269.589417 258.341095,268.453705 259.844360,267.177368 
	C261.589630,266.060242 263.155121,265.181488 263.775696,262.991455 
z"/>
<path fill="#3F4144" opacity="1.000000" stroke="none" 
	d="
M175.935791,135.561310 
	C187.449600,131.189758 199.145767,129.147934 211.686661,130.644577 
	C212.584854,131.480560 212.629135,132.217010 212.011200,133.286438 
	C209.646866,134.988159 207.258621,134.337357 204.602875,134.513474 
	C203.723358,134.549591 203.222107,134.564850 202.348694,134.550232 
	C200.987534,134.508102 199.998734,134.499786 198.649963,134.721100 
	C197.319870,135.129822 196.376144,135.550781 194.925598,135.481400 
	C190.722092,135.744934 187.015350,136.508911 183.398560,137.726746 
	C181.647415,138.316376 179.867416,138.663132 177.626282,138.128235 
	C176.468155,137.526001 176.017365,136.853851 175.935791,135.561310 
z"/>
<path fill="#555B5D" opacity="1.000000" stroke="none" 
	d="
M210.982300,133.223206 
	C211.517822,132.412659 211.765030,131.889587 212.048218,131.074097 
	C219.612671,130.611008 226.480438,133.239410 233.691193,135.982178 
	C234.012115,136.587479 234.005096,137.014725 233.983887,137.762161 
	C232.222504,140.147934 229.968292,139.353760 227.962830,138.909195 
	C224.259369,138.088226 220.542831,137.274841 216.534576,136.005493 
	C215.374268,135.681961 214.584091,135.553070 213.381500,135.448792 
	C212.435028,135.346344 211.929535,135.169678 211.177826,134.591141 
	C210.826614,134.037064 210.760300,133.773865 210.982300,133.223206 
z"/>
<path fill="#363738" opacity="1.000000" stroke="none" 
	d="
M175.650665,135.164124 
	C176.255905,135.574799 176.506653,136.003418 176.873718,136.651413 
	C176.965240,137.546677 176.844833,138.326996 176.254868,138.605469 
	C170.375153,141.380600 165.263306,145.593185 158.699188,147.696426 
	C157.577026,147.251740 157.228867,146.618271 157.193542,145.441513 
	C160.624313,142.746368 163.995453,140.426697 167.684235,137.947800 
	C170.433304,136.919739 172.864746,136.050903 175.650665,135.164124 
z"/>
<path fill="#3F4144" opacity="1.000000" stroke="none" 
	d="
M284.234192,168.669647 
	C285.194214,168.532486 285.673767,169.101349 285.702087,170.389862 
	C284.376862,170.911591 284.240204,170.003448 284.234192,168.669647 
z"/>
<path fill="#363738" opacity="1.000000" stroke="none" 
	d="
M290.141052,186.309158 
	C290.350433,186.301620 290.547028,186.569046 290.831543,187.071655 
	C290.655762,187.065933 290.391968,186.825027 290.141052,186.309158 
z"/>
<path fill="#BCC4C8" opacity="1.000000" stroke="none" 
	d="
M294.166016,290.747253 
	C290.421936,293.959473 287.059174,297.054321 283.347656,300.081726 
	C282.363098,298.211609 280.960052,296.990662 279.490845,295.382477 
	C279.927094,293.521576 281.216095,291.995026 279.772186,290.216309 
	C278.249939,288.341187 276.887878,290.263794 275.148987,290.567078 
	C272.750702,288.693054 270.654266,286.676880 268.339905,284.364319 
	C268.397186,280.233582 271.867310,277.543915 271.821960,273.282593 
	C273.297058,271.065674 274.818634,269.177521 276.656006,267.202362 
	C277.147217,267.395020 277.322632,267.674683 277.738037,268.046631 
	C283.015594,275.081085 289.196075,280.939880 295.829041,286.806122 
	C297.121155,288.836243 296.400757,289.977142 294.166016,290.747253 
z"/>
<path fill="#363738" opacity="1.000000" stroke="none" 
	d="
M278.820679,259.786743 
	C278.813751,259.751648 279.170227,260.022736 279.170227,260.022736 
	C279.170227,260.022736 278.900146,260.009216 278.828125,259.914642 
	C278.756134,259.820068 278.827576,259.821808 278.820679,259.786743 
z"/>
<path fill="#EBB3B4" opacity="1.000000" stroke="none" 
	d="
M319.713928,299.882751 
	C325.114075,305.385529 330.201263,310.763428 335.458496,316.445862 
	C335.423309,318.224609 334.465393,319.039429 332.942383,319.620728 
	C332.715759,319.683716 332.378418,319.797302 332.394531,319.991333 
	C332.984711,321.205963 333.163971,322.262848 332.522583,323.654022 
	C329.271484,326.136078 326.840240,322.868317 323.694366,322.785004 
	C323.706055,326.010406 326.046875,327.540863 327.796082,329.334900 
	C335.285156,337.015900 343.292969,344.174805 350.583405,352.061401 
	C354.403595,356.193939 353.726532,359.567688 348.218414,360.954376 
	C344.954559,359.442261 342.760254,357.238586 340.851044,354.227325 
	C337.033417,350.274414 334.419067,345.528351 329.009796,343.382263 
	C327.998779,343.180267 327.404785,342.863312 326.620056,342.218170 
	C325.616699,341.044342 325.119415,339.807129 323.408447,339.436005 
	C315.852325,333.839539 310.493561,326.345032 303.311768,320.794891 
	C302.305481,320.017212 301.771576,318.651550 300.302490,318.357880 
	C299.028778,319.604401 299.739014,321.586334 298.361664,323.109314 
	C297.862244,323.375580 297.626648,323.402557 297.073120,323.270081 
	C296.463013,322.959412 296.143188,322.845459 295.882629,322.651733 
	C286.883972,315.959839 286.879150,315.952728 294.679779,308.623840 
	C299.148315,304.425507 303.850372,300.415527 307.233978,295.241028 
	C309.893707,291.173492 312.184082,291.385376 314.915802,295.117828 
	C316.174408,296.837524 317.891632,298.221588 319.713928,299.882751 
z"/>
<path fill="#EBDEB2" opacity="1.000000" stroke="none" 
	d="
M285.593628,312.656769 
	C281.699127,307.491394 281.915131,305.704071 286.190369,301.661377 
	C289.177826,298.836426 291.983704,295.819519 295.022034,292.597290 
	C295.864471,290.580017 296.508331,288.825806 298.260620,287.777222 
	C298.538055,287.990448 298.720001,288.093658 298.811401,288.042969 
	C300.474091,287.494781 302.019623,286.716614 303.623138,286.569092 
	C305.750214,286.373474 307.669891,287.475800 308.593597,289.333832 
	C309.481812,291.120483 307.400421,291.819153 306.452606,292.797150 
	C300.555145,298.882477 294.593231,304.905579 288.623199,310.920044 
	C287.856934,311.692017 287.398590,313.008026 285.593628,312.656769 
z"/>
<path fill="#EAAEB0" opacity="1.000000" stroke="none" 
	d="
M307.911102,333.274170 
	C307.007141,333.257294 306.502625,333.073730 305.769897,332.721130 
	C303.618469,330.399902 301.695221,328.247650 299.571198,325.831421 
	C299.422668,325.285736 299.474915,325.004059 299.897888,324.500488 
	C305.947998,324.904999 308.669861,327.893188 307.911102,333.274170 
z"/>
<path fill="#EAAEB0" opacity="1.000000" stroke="none" 
	d="
M296.935547,323.355591 
	C296.974518,323.085541 297.193817,323.060516 297.742737,323.003693 
	C299.478455,322.223389 300.188446,322.782166 300.223938,324.602203 
	C300.020660,324.978577 299.710022,325.286621 299.540222,325.427002 
	C298.618927,324.911804 297.867432,324.256195 296.935547,323.355591 
z"/>
<path fill="#EAAEB0" opacity="1.000000" stroke="none" 
	d="
M347.842041,360.161926 
	C352.030762,358.451019 352.733612,356.061859 349.870911,353.725189 
	C344.837097,349.616425 340.736145,344.555389 335.847260,340.255432 
	C332.066803,336.930420 328.558899,333.117554 324.992340,329.460632 
	C323.846588,328.285858 322.717407,327.021759 321.907867,325.610779 
	C320.901642,323.856995 320.144104,321.507355 321.701019,320.054565 
	C323.190674,318.664551 325.192841,320.048889 326.547791,321.198822 
	C327.997345,322.429016 329.691986,322.994965 332.026123,323.850037 
	C336.085785,326.374420 340.333466,324.783508 344.213806,326.296783 
	C344.541016,326.184662 344.756073,326.270020 344.761993,326.385559 
	C344.340851,328.281250 346.054352,328.080566 347.185425,328.808899 
	C354.619141,335.929779 361.706543,342.981049 368.944519,350.314392 
	C369.177826,350.979889 369.353485,351.316162 369.835693,351.792480 
	C370.061554,351.973450 370.002563,351.993408 370.017517,351.966125 
	C370.219391,352.214935 370.438293,352.462738 370.891052,352.827209 
	C371.092865,352.972229 371.021545,352.959930 371.048615,352.935913 
	C372.009064,355.290894 373.917572,356.892609 375.637665,358.646698 
	C376.778656,359.810272 378.187225,360.880463 377.213745,363.228821 
	C376.779938,364.194275 376.405579,364.779480 375.902710,365.597260 
	C373.637421,370.907104 369.039520,373.951874 365.486542,378.312500 
	C365.103821,378.749084 364.930847,378.905945 364.434875,379.198730 
	C363.878357,379.341644 363.644836,379.348663 363.161926,379.109467 
	C362.211853,379.280273 361.344452,379.553009 360.838104,380.138153 
	C358.008698,383.407684 355.700073,382.308411 353.243439,379.268951 
	C352.250397,378.326843 351.548981,377.520416 350.698425,376.428101 
	C352.092224,372.353058 354.271637,372.639893 356.572113,374.888153 
	C352.967865,370.693634 345.458191,368.517090 347.842041,360.161926 
z"/>
<path fill="#EBDEB2" opacity="1.000000" stroke="none" 
	d="
M376.681519,367.071838 
	C378.978485,366.334137 379.148285,362.431732 381.652893,363.569946 
	C384.547729,364.885559 385.246735,367.916290 385.134186,371.192230 
	C384.876251,378.699677 373.140564,390.789459 362.950043,386.966980 
	C361.559662,386.445435 359.588348,386.162567 359.320160,384.709381 
	C358.979919,382.865845 361.457581,383.102173 362.405304,382.046936 
	C362.838257,381.564850 363.459961,381.252289 364.190247,380.579529 
	C364.162781,380.132568 363.941132,379.968933 363.888306,379.428040 
	C364.057098,379.050812 364.001251,379.003326 364.020630,379.034485 
	C367.981995,374.918915 372.221954,371.078583 376.681519,367.071838 
z"/>
<path fill="#483C3B" opacity="1.000000" stroke="none" 
	d="
M376.853302,366.800934 
	C373.834259,372.266205 368.949402,375.834076 364.257355,379.435394 
	C366.041473,373.274170 371.555725,370.495422 375.472290,365.958649 
	C376.075836,366.075317 376.377380,366.320831 376.853302,366.800934 
z"/>
<path fill="#EBB3B4" opacity="1.000000" stroke="none" 
	d="
M377.469788,363.408691 
	C376.981537,361.114105 375.153046,359.688873 373.587189,358.096405 
	C372.348877,356.837036 370.983368,355.654022 371.068176,353.280457 
	C371.523621,353.228912 371.971558,353.545959 372.686005,353.942993 
	C374.534454,355.716980 376.058624,357.470154 377.715698,359.087158 
	C379.171783,360.508118 379.535828,361.802856 377.469788,363.408691 
z"/>
<path fill="#483C3B" opacity="1.000000" stroke="none" 
	d="
M363.807678,378.779816 
	C364.295990,379.209869 364.534882,379.368896 364.579102,379.912048 
	C364.019287,380.013092 363.654083,379.729950 363.100708,379.155060 
	C363.127777,378.745117 363.342987,378.626953 363.807678,378.779816 
z"/>
<path fill="#BEC5C9" opacity="1.000000" stroke="none" 
	d="
M141.153564,273.239258 
	C143.083099,270.677673 147.893967,273.009064 148.831757,268.211365 
	C152.492691,267.085052 153.608582,270.873993 156.540283,271.753174 
	C159.077988,274.645538 162.136581,276.165833 165.479492,277.881042 
	C169.415466,280.600342 173.915619,281.131561 178.072693,283.331421 
	C179.236053,283.774872 180.000122,284.308655 181.279663,284.454803 
	C186.676056,285.157623 191.551331,287.020111 197.110779,286.570496 
	C199.209381,287.174103 201.330368,287.594025 201.425613,289.805206 
	C201.528030,292.182556 199.370438,292.752777 197.579681,292.885254 
	C194.509995,293.112305 195.580780,295.914093 194.235504,297.570068 
	C190.510681,298.241699 187.184387,297.251465 183.408508,296.583496 
	C181.552322,296.033478 180.100266,295.561768 178.313141,295.088440 
	C171.026337,292.427307 164.015488,289.896149 157.427185,285.564392 
	C153.436935,282.356476 148.815140,280.718079 145.110931,277.156128 
	C143.622437,275.858582 142.456757,274.690491 141.153564,273.239258 
z"/>
<path fill="#D29A9B" opacity="1.000000" stroke="none" 
	d="
M348.017914,359.663422 
	C348.584656,364.482452 350.654694,367.626373 354.524139,370.361389 
	C356.301239,371.617462 361.184692,372.836884 358.697784,377.430267 
	C358.264557,378.230438 357.979004,378.859070 357.022339,378.915527 
	C355.539612,379.003082 356.260284,377.825317 356.013214,377.187073 
	C354.989044,374.541412 353.311096,374.393921 350.879761,376.061401 
	C340.426453,366.152039 330.303619,356.161896 320.068756,345.880707 
	C319.295837,343.992096 318.036255,343.048248 316.206787,342.219238 
	C315.595306,342.002014 315.327332,341.865631 315.034393,341.398407 
	C314.395538,339.999268 313.792725,338.857666 312.172180,338.209900 
	C311.893280,338.046631 311.963623,338.034821 311.957550,338.069977 
	C311.374634,337.212402 311.087952,336.134857 309.917908,335.397766 
	C309.597260,335.379822 309.592194,335.168579 309.616394,335.271423 
	C309.626038,334.396088 308.825439,333.994843 307.912567,333.432556 
	C307.599640,333.418793 307.559265,333.450287 307.535461,333.445587 
	C307.376740,328.914429 303.643219,327.325012 300.359253,325.035461 
	C299.849579,324.152344 299.511353,323.449005 298.364960,323.048340 
	C297.885406,320.121582 296.294098,316.047150 298.709534,314.785889 
	C301.557434,313.298767 302.588501,317.841522 304.655518,319.470276 
	C311.532196,324.888855 317.310760,331.457672 323.730408,337.824402 
	C324.981201,338.749359 326.218781,339.201508 326.827637,340.745789 
	C327.398499,341.360260 327.879242,341.677155 328.650085,342.044312 
	C331.699219,344.633057 335.021423,346.603210 336.841553,350.085846 
	C337.787872,351.896667 339.526947,352.427155 341.710388,352.789978 
	C343.327881,355.676361 346.189148,356.983643 348.017914,359.663422 
z"/>
<path fill="#EAAEB0" opacity="1.000000" stroke="none" 
	d="
M316.072723,342.325165 
	C317.871796,342.050781 319.546722,342.465576 319.903137,345.200867 
	C318.712189,344.602386 317.467682,343.615112 316.072723,342.325165 
z"/>
<path fill="#EAAEB0" opacity="1.000000" stroke="none" 
	d="
M312.052399,338.320251 
	C313.541168,338.036224 314.857971,338.446625 314.940887,340.810364 
	C314.037445,340.320282 313.124481,339.457062 312.052399,338.320251 
z"/>
<path fill="#EAAEB0" opacity="1.000000" stroke="none" 
	d="
M309.590637,335.692413 
	C311.171539,335.110809 311.832458,335.916077 311.945862,337.738525 
	C311.162323,337.405090 310.373169,336.705048 309.590637,335.692413 
z"/>
<path fill="#EAAEB0" opacity="1.000000" stroke="none" 
	d="
M307.583008,333.741455 
	C308.679474,333.184509 309.496582,333.400940 309.676208,335.012085 
	C308.604767,335.482880 308.110748,334.733582 307.583008,333.741455 
z"/>
<path fill="#EAAEB0" opacity="1.000000" stroke="none" 
	d="
M331.060120,319.360413 
	C332.299225,318.314117 333.598419,317.628235 335.263062,316.846375 
	C336.488556,317.468750 337.348541,318.187134 338.470673,319.021912 
	C340.073181,319.528656 341.127014,320.253876 341.745483,321.931396 
	C342.193481,322.653870 342.528625,323.064697 342.976440,323.718445 
	C339.786987,328.147919 336.156403,325.045776 332.318970,324.216125 
	C331.706726,322.573608 331.413483,321.147217 331.060120,319.360413 
z"/>
<path fill="#EBB3B4" opacity="1.000000" stroke="none" 
	d="
M332.176575,324.298462 
	C335.471283,322.308960 338.896149,325.810974 342.728394,324.027039 
	C344.017548,324.184143 343.984558,325.048798 344.398743,325.947266 
	C340.252258,327.391388 335.903625,329.057556 332.176575,324.298462 
z"/>
<path fill="#4A4C4D" opacity="1.000000" stroke="none" 
	d="
M341.888000,321.849609 
	C340.918823,321.394318 339.979279,320.545593 338.886292,319.417603 
	C339.526581,319.105408 340.320374,319.072510 341.508667,319.067993 
	C341.908020,319.882935 341.912842,320.669556 341.888000,321.849609 
z"/>
<path fill="#EBB3B4" opacity="1.000000" stroke="none" 
	d="
M347.347046,328.625519 
	C346.288361,328.790161 344.756744,329.233185 344.653107,326.878052 
	C345.566071,327.124878 346.364197,327.748688 347.347046,328.625519 
z"/>
<path fill="#EBB3B4" opacity="1.000000" stroke="none" 
	d="
M371.000854,352.725708 
	C370.832733,352.765991 370.572601,352.559723 370.172485,352.146118 
	C370.324615,352.118958 370.616730,352.299072 371.000854,352.725708 
z"/>
<path fill="#EBB3B4" opacity="1.000000" stroke="none" 
	d="
M369.973389,351.696228 
	C369.810608,351.691315 369.559662,351.409149 369.201935,350.861755 
	C369.358490,350.870697 369.621857,351.144867 369.973389,351.696228 
z"/>
<path fill="#BCC4C8" opacity="1.000000" stroke="none" 
	d="
M194.420776,297.925812 
	C191.082321,292.613373 191.666443,289.747009 198.529007,290.921997 
	C199.191422,291.035370 200.388428,290.951233 200.090652,289.734772 
	C199.986008,289.307251 199.081161,289.075592 198.265411,288.626282 
	C199.160538,285.594025 201.627350,286.797272 204.042633,286.804840 
	C205.680298,287.323334 206.575287,289.213013 208.598694,287.777466 
	C210.432388,287.178375 211.869797,286.321838 213.903442,286.511627 
	C215.387024,286.518768 216.528091,286.466492 218.311920,286.832458 
	C232.604660,285.171173 244.545898,279.471283 255.585815,270.869354 
	C256.548096,272.339325 254.253860,274.591187 256.440002,275.592712 
	C258.158722,276.380066 260.321625,275.809052 261.950653,274.508423 
	C263.011841,273.661194 264.087555,273.001617 265.856110,273.074829 
	C263.576172,276.180603 260.618469,278.950134 257.199432,281.714050 
	C248.529694,286.157715 240.668686,291.573730 231.251007,294.543518 
	C219.085968,297.472290 207.148376,299.778625 194.420776,297.925812 
z"/>
<path fill="#99A2A1" opacity="1.000000" stroke="none" 
	d="
M271.472351,273.075378 
	C274.124451,274.080078 274.254791,275.865387 272.981445,277.791168 
	C271.646790,279.809662 270.931030,282.266449 268.490784,283.922363 
	C266.812256,283.140472 265.502502,282.212982 263.907471,281.136780 
	C265.301453,277.580841 269.071259,276.198608 271.472351,273.075378 
z"/>
<path fill="#A9B5B3" opacity="1.000000" stroke="none" 
	d="
M275.007507,290.944702 
	C275.747925,289.050873 276.224579,286.358307 277.920807,286.165497 
	C280.041260,285.924500 281.188141,288.442352 282.450836,290.124451 
	C284.987122,293.503174 282.136292,294.070953 279.618073,295.053711 
	C277.911133,293.795319 276.539520,292.487732 275.007507,290.944702 
z"/>
<path fill="#635C53" opacity="1.000000" stroke="none" 
	d="
M298.173035,287.739655 
	C297.993469,289.593414 297.231659,291.046539 295.468384,292.159241 
	C294.892548,291.957245 294.611786,291.608307 294.057861,291.061951 
	C294.618622,289.788544 295.452515,288.712524 296.207947,287.297058 
	C296.688965,287.134735 297.248474,287.311798 298.173035,287.739655 
z"/>
<path fill="#454C4F" opacity="1.000000" stroke="none" 
	d="
M156.940216,145.213196 
	C157.507706,145.563568 157.762253,146.061066 158.022568,146.843048 
	C158.863312,150.392548 156.479767,152.075455 154.490723,153.688370 
	C137.169495,167.734268 129.692276,186.688675 128.311005,208.161713 
	C127.660332,218.277145 130.247604,228.284622 134.299088,237.725403 
	C135.214859,239.859390 136.402435,241.915237 135.768738,244.760254 
	C135.123032,245.841415 134.446548,246.248856 133.202194,246.237274 
	C120.853722,223.691681 120.441933,200.846863 130.257843,177.614243 
	C135.892242,164.278534 144.534424,153.411224 156.940216,145.213196 
z"/>
<path fill="#555B5D" opacity="1.000000" stroke="none" 
	d="
M132.882233,246.460648 
	C133.344482,245.835999 133.877930,245.562546 134.676727,245.149139 
	C137.128998,244.248886 138.010178,245.991333 138.711426,247.324890 
	C142.879898,255.251892 149.333527,261.171112 155.773666,267.114380 
	C157.000214,268.246277 158.219055,269.356995 158.416702,271.504059 
	C158.013824,272.585175 157.404327,272.944733 156.269882,273.121155 
	C153.819183,271.535400 151.734970,269.903442 149.357513,268.125824 
	C142.524963,261.813751 136.587753,255.189133 132.882233,246.460648 
z"/>
<path fill="#DBEDEC" opacity="1.000000" stroke="none" 
	d="
M157.702271,272.410339 
	C153.717331,268.203094 149.575974,264.475311 145.653671,260.529785 
	C141.321060,256.171570 137.813232,251.193054 135.198547,245.238312 
	C124.604263,224.308563 123.203392,203.191269 131.613541,181.456848 
	C136.993439,167.553543 145.865433,156.498932 157.908478,147.436279 
	C163.563538,142.786987 169.941818,139.996399 176.649231,137.027557 
	C182.725159,135.740936 188.460281,134.611069 194.625107,133.510803 
	C197.042679,136.402344 194.500610,137.353806 192.800720,138.248245 
	C189.577744,139.944092 186.004730,140.848404 182.451019,141.514069 
	C174.053925,143.086990 174.035690,142.989609 173.161926,151.665222 
	C170.541290,155.606537 165.766876,155.464691 162.454193,158.460938 
	C161.983582,158.833649 161.780334,158.961975 161.245941,159.226135 
	C152.279114,163.305389 145.006516,175.496170 145.788025,185.137436 
	C148.268265,190.009659 150.979782,190.251877 155.465530,186.008148 
	C155.799301,185.022079 156.143890,184.425827 156.723022,183.568970 
	C158.721420,181.626602 160.651871,180.093399 162.255264,177.785187 
	C162.507370,177.291611 162.596710,177.087631 162.851608,176.592072 
	C163.155594,176.124802 163.294022,175.949142 163.671753,175.539551 
	C164.089310,175.173553 164.267548,175.041473 164.735901,174.753082 
	C165.857742,174.268188 166.487518,173.668808 167.363129,172.843536 
	C171.330307,170.494949 174.527924,167.729645 177.627975,164.323456 
	C178.549011,163.104431 179.258194,162.156555 180.422104,161.135834 
	C183.931931,159.796707 186.521133,157.559509 189.831299,155.851089 
	C194.024597,155.653656 197.536865,154.331909 201.382477,152.806671 
	C202.765030,152.790192 203.835556,152.941055 204.637115,153.406082 
	C209.778046,156.388504 215.091476,158.549194 221.204132,158.556656 
	C223.185242,158.559067 224.590866,160.358337 225.932220,161.878403 
	C228.605316,164.907684 232.004837,166.775436 236.337570,167.697784 
	C236.944733,167.897018 237.177231,168.010483 237.704224,168.378876 
	C240.956818,171.762848 244.232132,174.566727 247.194061,177.697250 
	C252.069550,182.850281 256.756592,188.351639 259.657013,194.688950 
	C262.243622,200.340576 264.226654,206.788361 260.801849,213.410553 
	C255.860001,213.350037 255.140076,209.686096 255.411255,206.557419 
	C256.008148,199.670883 252.307281,195.572937 247.072601,191.862854 
	C240.630539,191.005814 234.890213,186.245224 233.859161,180.320374 
	C233.339523,177.334274 231.567795,176.685120 229.459274,175.210999 
	C222.525818,170.363632 213.690216,170.780594 206.610336,165.952240 
	C202.635941,163.241791 196.639511,164.415222 191.523148,164.404358 
	C189.942047,164.400986 188.513046,165.469833 188.803223,167.319641 
	C189.621689,172.537247 185.873886,173.851532 182.253525,174.325134 
	C170.330200,175.884933 165.533020,185.644394 159.449036,193.788986 
	C157.319733,196.639450 158.561874,200.625412 158.484116,204.079254 
	C158.296234,212.424225 161.302124,220.089417 164.346161,227.986328 
	C170.297592,235.851059 176.958267,242.408188 185.194427,247.314972 
	C187.095383,248.447495 188.545013,250.110992 187.487671,252.981232 
	C186.431198,253.954025 185.294189,254.292557 184.469086,253.803192 
	C180.368591,251.371109 175.902390,252.012451 171.470840,251.815445 
	C165.126297,251.533417 159.674149,246.708771 158.869156,240.335648 
	C158.449356,237.012192 157.176407,234.351471 155.470718,231.688751 
	C153.854218,229.165268 152.290512,226.625732 151.771805,223.572815 
	C151.543961,222.231842 150.875778,220.799042 149.193024,221.143524 
	C147.423630,221.505753 147.761978,223.117126 147.871292,224.433578 
	C147.967621,225.593536 147.859985,226.811737 148.259293,227.899979 
	C154.483582,244.863434 163.235443,259.272980 182.569595,263.963135 
	C191.533600,266.137695 200.384705,267.577209 209.800293,265.994995 
	C208.223526,264.517273 206.354782,263.539917 206.324951,260.921936 
	C208.375519,257.207581 211.860672,257.379608 215.050476,257.027710 
	C217.493317,256.758179 220.028259,257.441559 222.408112,257.117981 
	C226.225708,256.598969 229.783066,255.214005 230.730377,250.275238 
	C231.332047,249.257523 231.890839,248.715118 232.837982,248.027618 
	C236.568588,246.517609 238.789429,243.859390 241.053726,241.162567 
	C243.041183,238.795486 244.898438,235.974747 249.019119,236.651703 
	C249.635086,237.258469 249.852692,237.702011 250.006805,238.557373 
	C249.753983,241.393143 248.075897,243.065338 246.676010,244.918930 
	C243.714203,248.840668 241.243423,252.896484 242.683334,258.207947 
	C243.116867,259.807129 242.697708,261.516876 242.095795,263.341492 
	C247.364807,259.308228 252.514404,255.573151 258.440186,252.756027 
	C262.963196,250.605774 265.395325,245.711884 267.122009,240.973129 
	C268.557922,237.032455 270.160583,233.270493 272.845367,229.991455 
	C274.804932,227.598206 276.070953,224.948959 274.732574,221.723358 
	C274.487152,221.131912 274.521210,221.859833 274.673401,221.245239 
	C276.471222,213.984467 277.129791,206.595215 277.422455,199.144867 
	C277.473877,197.835541 278.296692,196.614365 280.247192,196.588684 
	C286.111023,224.517212 272.954712,255.617020 248.751465,272.281616 
	C240.600601,277.893677 232.025742,282.349487 222.147430,284.010162 
	C220.542252,284.279999 218.289337,284.021515 218.474243,286.808411 
	C218.964371,287.016235 219.049255,287.011047 219.048309,286.968536 
	C218.744217,287.239960 218.372635,287.416260 217.622559,287.465607 
	C216.883041,287.338745 216.468414,287.206940 215.735977,286.965759 
	C214.747513,286.630768 214.058990,286.561005 212.986618,286.659271 
	C205.000946,288.805969 197.392746,287.390900 189.902618,286.212860 
	C181.746201,284.930023 173.845123,282.435333 166.065765,278.548676 
	C163.293442,276.113037 159.443253,275.967712 157.702271,272.410339 
z"/>
<path fill="#D5ECE2" opacity="1.000000" stroke="none" 
	d="
M172.235321,152.370209 
	C169.797028,143.784302 172.929291,140.216400 181.139832,139.579056 
	C185.898575,139.209671 191.198685,138.338486 194.969849,133.913391 
	C195.841614,133.382065 196.628403,133.223724 197.712402,133.140198 
	C199.134094,134.054565 200.303833,134.229980 201.768631,133.237076 
	C202.447876,132.955643 202.896820,132.892700 203.674057,132.929886 
	C206.132019,134.517212 208.312744,135.271545 210.992340,133.416809 
	C211.693710,133.339066 212.072632,133.339188 212.710907,133.462738 
	C213.478897,134.849945 214.370483,135.022171 215.754333,134.272339 
	C221.822281,134.955582 227.550934,136.271118 233.574066,138.053955 
	C245.767654,144.366821 256.925262,151.527985 265.225433,162.276855 
	C272.939392,172.266556 278.486359,183.293686 280.409851,196.345963 
	C278.838684,198.009659 279.056458,199.901886 278.996124,201.724854 
	C278.800354,207.639557 279.982025,213.755676 276.387085,219.185455 
	C276.081940,219.646317 276.043030,220.670715 276.349762,221.090012 
	C279.743958,225.729660 276.288666,228.862991 273.857574,232.055420 
	C271.911438,234.610962 270.393982,237.195740 269.613220,240.383545 
	C268.271027,245.863571 264.992798,250.623779 260.833527,253.989563 
	C257.922333,256.345337 253.756714,257.458252 250.379929,259.633759 
	C247.427704,261.535706 244.520294,263.370789 242.620865,266.461670 
	C241.855927,267.706421 240.501892,268.356903 239.177109,267.570740 
	C237.482040,266.564850 238.431625,265.244843 239.325974,264.248199 
	C240.647797,262.775238 241.482101,261.001587 240.877106,259.214813 
	C238.309845,251.633011 242.481796,246.503006 246.993225,241.425659 
	C247.543839,240.805954 248.007004,240.108551 248.755951,239.224701 
	C254.723358,233.815918 258.060944,227.689804 259.108307,219.741730 
	C259.879486,213.889313 263.113373,208.403687 261.543304,202.125336 
	C260.016296,196.019196 259.626709,189.421234 253.548325,185.519485 
	C253.135132,185.254242 252.763840,184.840820 252.605972,184.376266 
	C250.150375,177.150711 243.597580,172.691269 240.284866,165.940887 
	C238.246445,161.787186 233.037140,160.678238 229.094009,159.249374 
	C221.202148,156.389633 213.086761,153.917160 204.432983,152.179962 
	C203.156876,151.653549 202.595520,150.787796 201.481110,150.049667 
	C197.962708,146.429337 194.418198,146.865585 190.519318,149.227814 
	C190.058258,149.847519 189.785721,150.192825 189.251434,150.741577 
	C187.788818,151.689377 187.508743,152.936493 187.097412,154.495361 
	C186.143356,156.280457 185.150177,157.544785 182.990570,157.835571 
	C181.103653,157.750153 180.661011,156.063217 179.072510,155.481689 
	C178.567841,155.272202 178.369202,155.181473 177.898575,154.912750 
	C176.282669,153.081863 173.893066,153.994522 172.235321,152.370209 
z"/>
<path fill="#BCC4C8" opacity="1.000000" stroke="none" 
	d="
M263.591248,262.831329 
	C264.065613,264.941925 263.544952,266.712250 260.498962,267.005493 
	C261.185364,265.686310 262.243652,264.335846 263.591248,262.831329 
z"/>
<path fill="#DBEDEC" opacity="1.000000" stroke="none" 
	d="
M211.278503,133.240906 
	C209.171661,137.640854 206.727325,136.364944 204.105774,133.376343 
	C206.193939,133.015945 208.385529,133.001892 210.923859,132.961792 
	C211.270615,132.935745 211.242249,133.142868 211.278503,133.240906 
z"/>
<path fill="#DBEDEC" opacity="1.000000" stroke="none" 
	d="
M201.603256,132.936584 
	C201.160873,135.247360 199.920029,135.572052 198.124115,133.514542 
	C199.075607,133.094864 200.141586,132.974716 201.603256,132.936584 
z"/>
<path fill="#DBEDEC" opacity="1.000000" stroke="none" 
	d="
M215.627701,133.946854 
	C215.160828,136.138382 214.211288,136.468567 213.032150,133.921982 
	C213.733490,133.666595 214.496750,133.747009 215.627701,133.946854 
z"/>
<path fill="#A9B5B3" opacity="1.000000" stroke="none" 
	d="
M284.987244,295.335968 
	C285.084351,295.337311 284.984619,295.648254 284.984619,295.648254 
	C284.984619,295.648254 284.890137,295.334625 284.987244,295.335968 
z"/>
<path fill="#EAAEB0" opacity="1.000000" stroke="none" 
	d="
M341.921265,352.629822 
	C339.284546,355.693909 336.026825,353.770111 335.477264,351.857697 
	C334.330414,347.866791 330.483429,346.243256 329.014526,342.423157 
	C332.700165,341.074158 333.880463,344.857727 336.278290,346.282043 
	C338.528961,347.618988 340.011047,350.249817 341.921265,352.629822 
z"/>
<path fill="#EAAEB0" opacity="1.000000" stroke="none" 
	d="
M330.905640,318.690918 
	C329.944183,318.889648 328.754181,319.278717 327.950745,318.283020 
	C327.860321,318.170959 328.243805,317.407410 328.533600,317.305939 
	C329.574432,316.941528 330.337769,317.413757 330.905640,318.690918 
z"/>
<path fill="#EAAEB0" opacity="1.000000" stroke="none" 
	d="
M327.067993,340.805206 
	C326.043884,340.208069 325.169983,339.372803 324.158600,338.264008 
	C325.713257,338.072021 327.308777,338.273468 327.067993,340.805206 
z"/>
<path fill="#D29A9B" opacity="1.000000" stroke="none" 
	d="
M291.612488,302.307007 
	C291.317780,304.714935 289.640991,305.853149 288.319092,307.310028 
	C286.476166,303.508881 287.205780,302.333344 291.612488,302.307007 
z"/>
<path fill="#4A4C4D" opacity="1.000000" stroke="none" 
	d="
M165.662491,277.145386 
	C180.899231,284.393555 196.607910,287.324341 213.557892,285.592194 
	C214.636551,285.967560 215.062683,286.511475 215.105835,287.594025 
	C213.227661,288.198029 211.477600,288.465149 209.365387,288.840271 
	C208.005493,289.845734 206.870270,290.049591 205.246735,289.343872 
	C202.847015,288.930817 200.810211,288.794922 198.381287,288.578552 
	C192.211945,288.233856 186.559464,287.211761 180.595856,285.588623 
	C179.596893,285.761902 178.999344,285.787109 178.208237,285.172394 
	C173.807281,283.173767 169.614960,281.412781 165.166107,279.420776 
	C164.443604,278.422119 164.785294,277.831451 165.662491,277.145386 
z"/>
<path fill="#454C4F" opacity="1.000000" stroke="none" 
	d="
M165.756165,276.764893 
	C165.721298,277.549774 165.444595,278.093414 165.038727,278.913391 
	C161.743439,277.811279 158.889725,275.934570 156.066803,273.457703 
	C156.339767,272.831268 156.776154,272.495178 157.487305,272.093018 
	C159.736771,274.576385 163.338516,274.320892 165.756165,276.764893 
z"/>
<path fill="#BCC4C8" opacity="1.000000" stroke="none" 
	d="
M178.066864,285.220337 
	C178.563416,285.027863 179.127228,285.121002 179.947601,285.345581 
	C179.527237,286.422729 178.843475,286.879547 178.066864,285.220337 
z"/>
<path fill="#BEC5C9" opacity="1.000000" stroke="none" 
	d="
M204.745560,289.313568 
	C205.982849,288.990906 207.081879,288.915070 208.592072,288.893738 
	C207.333023,291.448395 206.427414,291.574524 204.745560,289.313568 
z"/>
<path fill="#555B5D" opacity="1.000000" stroke="none" 
	d="
M215.341217,287.973633 
	C214.671417,287.329163 214.365082,286.727386 214.002975,285.878845 
	C214.475983,285.469543 215.004791,285.307007 215.790131,285.269470 
	C216.141693,286.007477 216.450195,286.481598 217.412949,286.835510 
	C218.180817,286.659119 218.508011,286.463898 218.941284,286.597351 
	C218.156967,287.975647 216.899567,287.900146 215.341217,287.973633 
z"/>
<path fill="#DCEDF3" opacity="1.000000" stroke="none" 
	d="
M234.262589,248.698959 
	C233.524002,249.304443 233.048019,249.607071 232.286926,249.955017 
	C228.192612,252.008453 224.095413,251.411560 220.312500,250.511978 
	C214.375000,249.100037 208.534409,248.643799 202.537384,249.662750 
	C200.716934,249.972076 198.752914,250.003387 197.128296,249.173553 
	C188.090988,244.557388 179.148102,239.728928 173.321930,230.952789 
	C170.003281,225.953796 168.422974,225.429840 164.352386,228.860870 
	C162.506622,228.892227 160.277069,228.850677 160.589264,227.026627 
	C161.419769,222.173935 158.572067,218.370651 157.392075,214.157974 
	C155.743927,208.274002 156.281250,202.368637 156.538254,196.568314 
	C156.769272,191.354553 160.494141,187.338242 164.296722,183.809494 
	C164.902588,183.247253 165.780121,182.892487 166.202835,182.231323 
	C170.349640,175.745468 176.010193,171.996521 183.907928,171.786621 
	C185.196167,171.752411 187.165192,171.415268 187.530060,169.658600 
	C187.939056,167.689484 184.888779,168.515396 184.757751,166.830612 
	C187.828506,162.472321 191.725311,162.253830 196.874985,162.387405 
	C203.518661,162.559723 209.141998,163.843719 214.253510,167.884338 
	C214.498444,168.077972 214.904114,168.244843 215.187256,168.187759 
	C222.330750,166.747467 226.776825,173.489227 233.246445,174.129425 
	C235.245834,174.327271 235.866470,175.730713 235.854248,177.692657 
	C235.818298,183.471725 240.398193,188.814911 246.618958,189.996826 
	C251.818130,196.472534 252.756821,203.421036 251.712341,211.526138 
	C250.396011,221.740982 246.402618,230.196533 239.876892,237.813965 
	C237.248566,240.881973 236.532272,244.979095 234.262589,248.698959 
z"/>
<path fill="#D6ECE6" opacity="1.000000" stroke="none" 
	d="
M206.782257,260.710663 
	C208.343719,263.749756 211.062027,264.201447 213.601120,264.950287 
	C214.382904,265.180847 215.377258,265.286255 215.251816,266.395508 
	C215.145889,267.332184 214.296432,267.826111 213.464249,267.817169 
	C208.033737,267.758942 202.770966,269.007629 197.171585,268.571655 
	C189.007401,267.935974 181.137863,266.429626 174.026306,262.904755 
	C165.349548,258.604065 156.496536,253.984299 153.425507,243.304413 
	C152.440323,239.878342 150.219757,236.753326 148.277161,233.671631 
	C146.234711,230.431549 145.966507,226.777451 145.375824,223.212814 
	C144.992798,220.901428 145.922043,218.733490 148.449036,218.260895 
	C151.101120,217.764954 153.431015,219.262955 153.579697,221.808395 
	C153.875381,226.870560 157.173996,230.206924 159.597794,234.063766 
	C160.326294,235.222977 160.889145,236.263000 160.862854,237.705917 
	C160.728867,245.062210 165.298233,250.447128 172.453445,249.768433 
	C177.709030,249.269943 182.085144,250.015305 186.650101,252.935516 
	C187.188553,252.851288 187.371933,252.709274 187.903015,252.536652 
	C189.556244,252.969604 190.802139,253.624115 192.558792,253.847092 
	C197.466080,256.086731 202.405060,257.430511 206.782257,260.710663 
z"/>
<path fill="#E0F0F1" opacity="1.000000" stroke="none" 
	d="
M207.302490,260.765991 
	C201.363983,261.202545 197.178101,257.383514 192.115723,255.337494 
	C191.128799,253.789185 189.533218,254.235870 188.236938,253.228668 
	C188.000610,253.000610 187.502823,252.997360 187.253998,252.995331 
	C187.081482,250.086670 184.802643,249.243484 182.796341,248.097015 
	C175.842697,244.123459 170.212433,238.648560 165.302338,232.398926 
	C164.713791,231.649796 164.501251,230.605255 164.056610,229.348816 
	C163.931519,226.755569 164.099808,224.521255 166.507202,223.520554 
	C168.791245,222.571136 170.198303,224.316620 171.674698,225.632385 
	C172.539093,226.402740 173.769440,227.024567 174.187729,227.992874 
	C178.424194,237.800217 188.374481,240.929642 196.013519,246.725067 
	C197.380737,247.762329 199.427643,248.344803 201.268967,247.847687 
	C211.480713,245.090683 221.243881,249.273102 231.623322,249.836487 
	C231.977890,255.671555 227.181274,260.499695 221.681671,259.537170 
	C216.786285,258.680389 212.231094,259.278259 207.302490,260.765991 
z"/>
<path fill="#D9EEE8" opacity="1.000000" stroke="none" 
	d="
M203.345367,150.912933 
	C210.974487,150.956406 217.813721,152.848770 224.287674,156.023163 
	C225.415741,156.576279 226.338425,156.958237 227.519241,156.639542 
	C228.481628,156.379822 229.669983,155.853806 230.367783,156.656586 
	C233.919510,160.742737 240.231400,161.268555 242.811478,166.682709 
	C245.604248,172.543198 252.535889,175.724197 253.498688,182.858398 
	C253.557312,183.292801 253.984192,183.944901 254.349655,184.031418 
	C263.744568,186.255539 260.420074,195.184372 262.580902,200.885773 
	C264.283051,205.376984 263.468140,211.215775 261.331055,216.368500 
	C260.392487,218.631516 260.014648,221.348328 260.363495,224.151703 
	C261.005066,229.308151 255.323975,236.775757 249.364502,238.986603 
	C249.000793,238.557281 249.000351,238.112335 248.999664,237.333694 
	C248.854340,236.825577 248.709290,236.651169 248.536987,236.135437 
	C248.714249,234.897446 249.325348,234.153198 249.571411,232.892853 
	C251.964630,228.353973 253.967209,224.041595 255.478531,219.482773 
	C256.240631,217.184036 257.013763,214.729965 259.694702,213.197113 
	C261.890625,205.952881 260.536011,199.563690 256.881897,193.253036 
	C251.642899,184.205276 243.308441,177.868591 237.062714,169.341324 
	C237.361237,168.438690 236.976868,169.252548 237.317673,168.681305 
	C237.547836,168.295517 237.872116,167.912079 237.768829,167.471619 
	C237.668823,167.045166 237.556656,167.122833 237.638702,167.649918 
	C237.683990,167.940842 237.572006,168.233627 237.219727,168.753235 
	C231.612274,168.640625 226.554260,167.723740 223.733566,162.228210 
	C222.569077,159.959442 220.234695,160.000107 218.067062,160.013611 
	C213.958099,160.039215 209.756592,160.640732 207.041214,156.268661 
	C206.052155,154.676178 203.432693,155.842041 201.946121,154.028687 
	C201.306015,152.518494 201.770874,151.551529 203.345367,150.912933 
z"/>
<path fill="#F3F5F2" opacity="1.000000" stroke="none" 
	d="
M158.092316,184.209930 
	C157.851532,184.892654 157.731155,185.247879 157.564087,185.784866 
	C151.093506,190.980225 149.721451,191.098129 145.017776,186.685486 
	C143.931198,182.826447 144.612961,179.504776 146.136353,176.306870 
	C149.502960,169.239700 153.814240,162.925842 160.752777,158.248199 
	C161.044968,158.003387 161.002518,157.991608 161.014099,158.010284 
	C166.505188,155.462799 171.709244,151.830566 178.644836,153.802338 
	C178.989563,154.038818 179.004944,153.988632 178.978790,153.990829 
	C182.274796,157.235443 181.484467,160.588577 179.001694,164.283661 
	C175.512543,167.582504 171.905045,170.143677 168.064606,172.954666 
	C167.029572,173.966461 166.250580,174.755219 165.208221,175.745178 
	C164.964111,175.965897 164.999390,175.997559 164.981964,175.983887 
	C164.773087,176.221664 164.560760,176.454086 164.146698,176.819580 
	C163.965805,176.971680 164.001511,176.997711 163.985825,176.981049 
	C162.040436,179.261612 159.346817,180.923080 158.092316,184.209930 
z"/>
<path fill="#E0F0F1" opacity="1.000000" stroke="none" 
	d="
M259.699432,212.801575 
	C257.412201,219.924301 255.614136,227.185913 251.152267,233.687775 
	C250.457504,234.523865 249.936234,235.068542 249.204193,235.802277 
	C249.002289,236.000137 249.000839,236.500061 249.000122,236.750031 
	C246.101837,238.289169 243.663193,240.235062 242.123016,242.958450 
	C240.399551,246.005966 237.889008,247.804520 234.350403,248.943115 
	C232.941086,241.904999 237.472916,237.159546 241.340454,232.307343 
	C245.820816,226.686279 247.585342,220.311600 249.311447,213.429886 
	C251.367142,205.234161 248.682785,198.228409 247.002655,190.399918 
	C253.617920,192.269684 257.879974,198.696228 257.184235,205.277191 
	C256.895477,208.008377 257.511047,210.509384 259.699432,212.801575 
z"/>
<path fill="#99A2A1" opacity="1.000000" stroke="none" 
	d="
M160.680664,157.942505 
	C158.387161,161.034470 155.571808,163.943451 153.106949,167.124054 
	C148.987061,172.440338 145.082565,177.926453 145.274506,185.561340 
	C145.095688,186.090790 144.901947,186.205688 144.426422,186.134186 
	C142.984421,175.752228 150.806213,162.177414 160.680664,157.942505 
z"/>
<path fill="#D6ECE6" opacity="1.000000" stroke="none" 
	d="
M181.836609,157.243591 
	C183.978928,156.870224 184.713303,155.242538 186.219910,154.096313 
	C187.269669,153.698624 188.005066,153.748291 189.041016,154.263382 
	C189.718582,154.837555 189.975311,155.265106 190.127686,156.133316 
	C188.514282,159.967804 185.330994,161.086670 181.632080,161.993408 
	C180.400162,160.454926 181.019974,158.972107 181.836609,157.243591 
z"/>
<path fill="#A9B5B3" opacity="1.000000" stroke="none" 
	d="
M178.848801,153.688248 
	C172.697784,153.100937 167.361633,156.138779 161.405121,158.101639 
	C163.579544,154.446655 167.718872,153.864304 171.744385,152.319397 
	C174.319687,152.194107 176.768616,151.368271 178.848801,153.688248 
z"/>
<path fill="#99A2A1" opacity="1.000000" stroke="none" 
	d="
M190.534348,156.603149 
	C189.761505,156.227722 189.393860,155.944962 188.901581,155.463531 
	C188.847656,155.040710 188.918365,154.816574 189.232544,154.338501 
	C193.289886,152.757523 197.401001,152.156921 201.309174,149.274323 
	C202.916351,148.933716 203.365387,149.500549 203.658249,150.617554 
	C203.142212,151.725082 202.583206,152.541855 201.856842,153.609436 
	C198.361771,155.774368 194.970444,157.447403 190.534348,156.603149 
z"/>
<path fill="#A9B5B3" opacity="1.000000" stroke="none" 
	d="
M166.896027,173.150818 
	C170.163559,170.258286 173.540054,167.688019 177.222794,165.020996 
	C177.820679,164.785339 178.112305,164.646423 178.784729,164.807129 
	C176.007263,168.391220 172.695312,171.491684 168.436966,173.985352 
	C167.685150,174.051666 167.303909,173.830917 166.896027,173.150818 
z"/>
<path fill="#A9B5B3" opacity="1.000000" stroke="none" 
	d="
M144.168365,186.300568 
	C144.335037,185.951370 144.525436,185.954941 145.002640,185.967209 
	C149.265518,191.637177 152.977798,187.746216 157.128662,185.813141 
	C153.386383,192.398102 148.217377,192.664490 144.168365,186.300568 
z"/>
<path fill="#99A2A1" opacity="1.000000" stroke="none" 
	d="
M145.649811,205.146057 
	C142.415588,208.499130 139.933258,208.002380 139.082520,204.054749 
	C138.630035,201.955078 138.543900,199.762436 139.867554,197.394379 
	C140.487625,196.844894 140.931976,196.861420 141.614227,197.357086 
	C143.677719,199.305481 141.815979,202.663071 144.980682,204.082535 
	C145.412766,204.449585 145.558945,204.627411 145.649811,205.146057 
z"/>
<path fill="#99A2A1" opacity="1.000000" stroke="none" 
	d="
M179.416962,164.916962 
	C178.893646,165.073578 178.621796,165.040405 177.939484,164.965744 
	C179.668869,161.784256 181.003647,158.524887 178.993347,154.384247 
	C180.558380,154.015610 181.312531,155.097061 182.034393,156.688370 
	C181.920715,158.439575 181.683533,159.874664 181.360474,161.663406 
	C180.739212,162.920441 180.203827,163.823822 179.416962,164.916962 
z"/>
<path fill="#99A2A1" opacity="1.000000" stroke="none" 
	d="
M146.433884,195.085266 
	C149.116211,198.612091 148.528900,201.897797 145.871078,205.273071 
	C145.428055,205.357056 145.261642,205.227234 144.859558,204.885986 
	C143.078339,202.084610 143.935074,199.478790 144.717255,196.497040 
	C145.146576,195.645935 145.536591,195.286926 146.433884,195.085266 
z"/>
<path fill="#99A2A1" opacity="1.000000" stroke="none" 
	d="
M158.260574,184.322937 
	C157.281723,180.281708 160.670090,178.804993 163.613251,176.873077 
	C163.232071,180.156830 160.259323,181.653580 158.260574,184.322937 
z"/>
<path fill="#A9B5B3" opacity="1.000000" stroke="none" 
	d="
M146.686996,194.850418 
	C146.559967,195.275681 146.334671,195.479202 146.039337,195.934570 
	C144.767471,197.161255 143.850327,198.571487 141.706207,198.455338 
	C141.103500,198.053314 140.830383,197.724091 140.293488,197.211624 
	C141.493423,194.338730 143.168060,192.208191 146.686996,194.850418 
z"/>
<path fill="#99A2A1" opacity="1.000000" stroke="none" 
	d="
M166.510834,173.016785 
	C167.113235,173.097580 167.439423,173.366592 167.951721,173.894562 
	C167.292435,174.778671 166.447067,175.403824 165.282913,175.997437 
	C164.265015,174.529007 165.616608,174.035797 166.510834,173.016785 
z"/>
<path fill="#D9EEE8" opacity="1.000000" stroke="none" 
	d="
M206.270981,158.337967 
	C205.950119,158.275131 205.756668,158.093216 205.563217,157.911301 
	C205.672653,157.809509 205.782074,157.707718 205.891495,157.605911 
	C206.060471,157.810242 206.229446,158.014557 206.270981,158.337967 
z"/>
<path fill="#99A2A1" opacity="1.000000" stroke="none" 
	d="
M164.249664,176.955933 
	C164.084030,176.597580 164.202255,176.223495 164.642517,175.909790 
	C164.820877,176.293533 164.677200,176.616867 164.249664,176.955933 
z"/>
<path fill="#454C4F" opacity="1.000000" stroke="none" 
	d="
M217.934845,286.333893 
	C217.397385,286.590454 216.941147,286.326599 216.265808,285.728577 
	C216.703156,285.534119 217.359619,285.673798 217.934845,286.333893 
z"/>
<path fill="#99A2A1" opacity="1.000000" stroke="none" 
	d="
M189.466553,149.387878 
	C192.571152,144.841644 198.052628,144.585373 201.988647,148.645615 
	C201.946350,149.045456 201.932922,149.050674 201.923279,149.058014 
	C198.066223,150.767883 194.051620,150.137756 189.466553,149.387878 
z"/>
<path fill="#99A2A1" opacity="1.000000" stroke="none" 
	d="
M188.878632,155.145676 
	C188.136505,154.956192 187.496078,154.647507 186.686996,154.132690 
	C186.181610,152.556351 186.026794,151.212250 187.356110,149.847351 
	C187.858246,149.723969 188.080719,149.794403 188.590698,150.067657 
	C189.880875,151.449860 190.198074,152.758636 189.407059,154.513367 
	C189.187637,154.791550 188.980331,155.026489 188.878632,155.145676 
z"/>
<path fill="#99A2A1" opacity="1.000000" stroke="none" 
	d="
M187.768066,149.776123 
	C187.885086,149.430923 188.134384,149.208313 188.625290,148.923462 
	C188.866898,148.861237 188.994476,148.998230 189.057861,149.067108 
	C189.197632,149.543106 189.062164,149.869736 188.456116,150.134155 
	C188.167526,150.141068 187.900360,149.898712 187.768066,149.776123 
z"/>
<path fill="#DBEDEC" opacity="1.000000" stroke="none" 
	d="
M166.094833,191.831238 
	C163.469910,190.847076 164.187485,189.760498 165.702377,188.780502 
	C166.522522,188.249924 167.719788,187.812592 168.297195,188.828079 
	C169.348190,190.676422 167.979538,191.390411 166.094833,191.831238 
z"/>
<path fill="#DBEDEC" opacity="1.000000" stroke="none" 
	d="
M194.729034,166.662170 
	C195.049774,166.724960 195.243134,166.906815 195.436493,167.088654 
	C195.327103,167.190414 195.217712,167.292160 195.108322,167.393921 
	C194.939438,167.189682 194.770554,166.985443 194.729034,166.662170 
z"/>
<path fill="#DBEDEC" opacity="1.000000" stroke="none" 
	d="
M188.108490,253.334351 
	C189.380493,253.106812 190.942642,252.694687 191.892670,254.664673 
	C190.620972,254.891815 189.057739,255.306870 188.108490,253.334351 
z"/>
<path fill="#D5ECE2" opacity="1.000000" stroke="none" 
	d="
M237.000305,168.999695 
	C236.905792,167.035858 235.280716,166.294022 234.032455,165.232559 
	C233.356628,164.657883 233.012695,163.847763 233.508438,163.036057 
	C233.677094,162.759903 234.569046,162.545715 234.742996,162.710983 
	C236.597427,164.473160 239.574158,165.266891 240.170334,168.040131 
	C240.385330,169.040192 238.639847,168.870789 237.349045,168.995819 
	C237.000610,168.999390 237.000000,169.000000 237.000305,168.999695 
z"/>
<path fill="#DBEDEC" opacity="1.000000" stroke="none" 
	d="
M249.302185,235.926392 
	C249.161667,235.151596 249.522095,234.454559 250.698898,234.072891 
	C250.838898,234.847244 250.479187,235.544876 249.302185,235.926392 
z"/>
<path fill="#F3F5F2" opacity="1.000000" stroke="none" 
	d="
M188.134476,150.493408 
	C188.478592,150.028763 188.735336,149.841827 189.029480,149.358139 
	C193.090698,147.607819 197.084656,146.835938 201.539551,148.905640 
	C199.787384,154.800766 195.078461,155.165146 189.600281,154.789688 
	C188.597488,153.539062 187.637177,152.388474 188.134476,150.493408 
z"/>
<path fill="#F3F5F2" opacity="1.000000" stroke="none" 
	d="
M141.317810,198.772171 
	C142.410355,197.169098 143.159912,195.506317 145.577698,196.036102 
	C146.002640,198.794128 146.134369,201.463745 144.757156,204.313492 
	C143.038406,205.728043 141.469101,206.428864 141.153809,203.628021 
	C140.988754,202.161819 141.211456,200.651947 141.317810,198.772171 
z"/>
</svg>